<mxfile host="app.diagrams.net" modified="2023-11-23T11:05:39.649Z" agent="Mozilla/5.0 (Windows NT 10.0; Win64; x64) AppleWebKit/537.36 (KHTML, like Gecko) Chrome/119.0.0.0 Safari/537.36" etag="dgxbDCdlYsAEFTv2jop4" version="22.1.3" type="github">
  <diagram name="Page-1" id="nhNsRzITMz-M93TEYYym">
    <mxGraphModel dx="794" dy="464" grid="1" gridSize="10" guides="1" tooltips="1" connect="1" arrows="1" fold="1" page="1" pageScale="1" pageWidth="827" pageHeight="1169" math="0" shadow="0">
      <root>
        <mxCell id="0" />
        <mxCell id="1" parent="0" />
        <mxCell id="Hp8Fg3LxT_b1Gx9PQCwO-2" value="CHECK LEARNING PLOT" style="strokeWidth=1;shadow=0;dashed=0;align=center;html=1;shape=mxgraph.mockup.containers.window;align=left;verticalAlign=top;spacingLeft=8;strokeColor2=#008cff;strokeColor3=#c4c4c4;fontColor=#666666;mainText=;fontSize=17;labelBackgroundColor=none;whiteSpace=wrap;" parent="1" vertex="1">
          <mxGeometry x="130" y="50" width="550" height="420" as="geometry" />
        </mxCell>
        <mxCell id="Bg1jh7Ig21SnH2CRWFRp-2" value="#ITERATION FINE" style="strokeWidth=1;shadow=0;dashed=0;align=center;html=1;shape=mxgraph.mockup.buttons.button;strokeColor=#2D7600;fontColor=#ffffff;mainText=;buttonStyle=round;fontSize=17;fontStyle=1;fillColor=#60a917;whiteSpace=wrap;" vertex="1" parent="1">
          <mxGeometry x="180" y="390" width="150" height="50" as="geometry" />
        </mxCell>
        <mxCell id="Bg1jh7Ig21SnH2CRWFRp-3" value="#ITERATION NOT FINE" style="strokeWidth=1;shadow=0;dashed=0;align=center;html=1;shape=mxgraph.mockup.buttons.button;strokeColor=#B20000;mainText=;buttonStyle=round;fontSize=17;fontStyle=1;fillColor=#e51400;whiteSpace=wrap;fontColor=#ffffff;" vertex="1" parent="1">
          <mxGeometry x="480" y="390" width="150" height="50" as="geometry" />
        </mxCell>
        <mxCell id="Bg1jh7Ig21SnH2CRWFRp-5" value="" style="shape=image;verticalLabelPosition=bottom;labelBackgroundColor=default;verticalAlign=top;aspect=fixed;imageAspect=0;image=data:image/png,iVBORw0KGgoAAAANSUhEUgAAAyAAAAJYCAYAAACadoJwAAAAOXRFWHRTb2Z0d2FyZQBNYXRwbG90bGliIHZlcnNpb24zLjcuMCwgaHR0cHM6Ly9tYXRwbG90bGliLm9yZy88F64QAAAACXBIWXMAAA9hAAAPYQGoP6dpAACbgElEQVR4nOzdd3wUdf4/8NdsT9000iCEAKGEhN4RFQsoKKAngp5w2L277ymn56m/O/WwcXrWU8F2ggUBK4IiimJDSugtEFpID+nZtO3z+2OSJZsekt3Z8no+HvtIdnZ29r3LAPPaTxNEURRBRERERETkBgq5CyAiIiIiIv/BAEJERERERG7DAEJERERERG7DAEJERERERG7DAEJERERERG7DAEJERERERG7DAEJERERERG7DAEJERERERG7DAEJERERERG7DAEJERERERG7DAEJERERERG7DAEJERERERG7DAEJERERERG7DAEJERERERG7DAEJERERERG7DAEJERERERG7DAEJERERERG7DAEJERERERG7DAEJERERERG7DAEJERERERG7DAEJERERERG7DAEJERERERG7DAEJERERERG7DAEJERERERG7DAEJERERERG7DAEJERERERG7DAEJERERERG7DAEJERERERG7DAEJERERERG7DAEJERERERG7DAEJERERERG7DAEJERERERG7DAEJERERERG7DAEJERERERG7DAEJERERERG7DAEJERERERG7DAEJERERERG7DAEJERERERG7DAEJERERERG7DAEJERERERG7DAEJERERERG7DAEJERERERG7DAEJERERERG7DAEJERERERG7DAEJERERERG7DAEJERERERG7DAEJERERERG7DAEJERERERG7DAEJERERERG7DAEJERERERG7DAEJERERERG7DAEJE5CarVq2CIAjYs2eP3KV02aWXXopLL71Utte32+344IMPcMUVVyAqKgpqtRrR0dG45pprsHHjRtjtdtlqIyKirlHJXQAREXm+5cuXy/baRqMRc+fOxXfffYcFCxZgxYoViI2NRUlJCTZv3ox58+Zh3bp1mDNnjmw1EhFR5zGAEBH5GVEUYTQaERAQ0OnnpKSkuLCi9t1///349ttv8d5772HRokVOj11//fV48MEHUV9f3yOvVVdXh8DAwB45FhERtY5dsIiIPMzJkydx8803Izo6GlqtFkOHDsXrr7/utI/RaMQDDzyAkSNHQq/XIyIiApMmTcKXX37Z4niCIOD//u//8MYbb2Do0KHQarV47733HF3CfvzxR/zxj39EVFQUIiMjcf3116OgoMDpGM27YJ09exaCIOD555/Hiy++iKSkJAQHB2PSpEnYuXNnixrefvttDBo0CFqtFikpKfjoo4+wePFi9OvXr93PoqioCO+88w5mzJjRInw0Sk5OxvDhwwGc7+Z29uxZp31++uknCIKAn376yek9paam4pdffsHkyZMRGBiI2267DXPnzkViYmKr3bomTJiA0aNHO+6Loojly5dj5MiRCAgIQHh4OG644QacOXOm3fdFROTPGECIiDxIRkYGxo0bhyNHjuCFF17AV199hVmzZuHee+/F0qVLHfuZTCaUl5fjb3/7G9avX481a9bgoosuwvXXX4/333+/xXHXr1+PFStW4LHHHsO3336LqVOnOh674447oFar8dFHH+G5557DTz/9hFtuuaVT9b7++uvYsmULXn75ZaxevRq1tbWYOXMmqqqqHPu89dZbuOuuuzB8+HB8/vnn+Oc//4mlS5c6hYG2/Pjjj7BYLJg7d26n6umqwsJC3HLLLbj55puxadMm/OlPf8Jtt92GnJwcbN261Wnf48ePIz09Hbfeeqtj2913340lS5bgiiuuwPr167F8+XIcPXoUkydPxrlz51xSMxGRt2MXLCIiD3L//fcjJCQE27ZtQ2hoKADgyiuvhMlkwr///W/ce++9CA8Ph16vx8qVKx3Ps9lsuPzyy1FRUYGXX365RWtBTU0NDh8+jPDwcMe23bt3AwCuuuoq/Pe//3VsLy8vx9///ncUFRUhNja23XpDQkLw1VdfQalUAgDi4+Mxfvx4fPPNN1iwYAHsdjsef/xxTJgwAZ9++qnjeRdddBEGDhyI+Pj4do+fk5MDAEhKSmp3vwtVXl6OTz75BJdddpljm9VqRUxMDFauXIkrrrjCsX3lypXQaDS4+eabAQA7d+7E22+/jRdeeAH333+/Y7+pU6di0KBBePHFF/Hss8+6pG4iIm/GFhAiIg9hNBrxww8/4LrrrkNgYCCsVqvjNnPmTBiNRqfuTZ988gmmTJmC4OBgqFQqqNVq/O9//8OxY8daHPuyyy5zCh9NzZ492+l+Y3em7OzsDmueNWuWI3y09tzMzEwUFRXhxhtvdHpe3759MWXKlA6P72rh4eFO4QMAVCoVbrnlFnz++eeOlhybzYYPPvgAc+bMQWRkJADgq6++giAIuOWWW5z+rGJjYzFixIhOtfAQEfkjBhAiIg9RVlYGq9WKV199FWq12uk2c+ZMAEBpaSkA4PPPP8eNN96I3r1748MPP8SOHTuwe/du3HbbbTAajS2OHRcX1+brNl5QN9JqtQDQqYHdHT23rKwMABATE9Piua1ta65v374AgKysrA73vRBtfS6Nn+PatWsBAN9++y0KCwudul+dO3cOoigiJiamxZ/Xzp07HX9WRETkjF2wiIg8RHh4OJRKJRYuXIg///nPre7T2BXpww8/RFJSEtatWwdBEByPm0ymVp/XdB93agworY2HKCoq6vD506ZNg1qtxvr163HPPfd0uL9OpwPQ8nNoKwy09bmkpKRg/PjxWLlyJe6++26sXLkS8fHxmD59umOfqKgoCIKAX3/91RG8mmptGxERsQWEiMhjBAYGYtq0adi/fz+GDx+OsWPHtrg1XtALggCNRuN0AV1UVNTqLFhyGjx4MGJjY/Hxxx87bc/JycH27ds7fH5sbCzuuOMOfPvtt60OrgeA06dP49ChQwDgmFWr8X6jDRs2dLn2W2+9Fbt27cK2bduwceNG/OEPf3DqbnbNNddAFEXk5+e3+meVlpbW5dckIvIHbAEhInKzrVu3tpgmFgBmzpyJV155BRdddBGmTp2KP/7xj+jXrx+qq6tx6tQpbNy40TEz0zXXXIPPP/8cf/rTn3DDDTcgNzcXTz75JOLi4nDy5Ek3v6O2KRQKLF26FHfffTduuOEG3HbbbaisrMTSpUsRFxcHhaLj78FefPFFnDlzBosXL8a3336L6667DjExMSgtLcWWLVuwcuVKrF27FsOHD8e4ceMwePBg/O1vf4PVakV4eDi++OILbNu2rcu133TTTbj//vtx0003wWQyYfHixU6PT5kyBXfddRduvfVW7NmzBxdffDGCgoJQWFiIbdu2IS0tDX/84x+7/LpERL6OAYSIyM0eeuihVrdnZWUhJSUF+/btw5NPPol//vOfKC4uRlhYGJKTkx3jQADp2/ni4mK88cYbePfdd9G/f388/PDDyMvLc5qu1xPcddddEAQBzz33HK677jr069cPDz/8ML788kvHLFft0el0+Prrr7F69Wq89957uPvuu2EwGBAeHo6xY8fi3XffxbXXXgsAUCqV2LhxI/7v//4P99xzD7RaLRYsWIDXXnsNs2bN6lLder0e1113HT766CNMmTIFgwYNarHPm2++iYkTJ+LNN9/E8uXLYbfbER8fjylTpmD8+PFdej0iIn8hiKIoyl0EERH5l8rKSgwaNAhz587FW2+9JXc5RETkRmwBISIilyoqKsLTTz+NadOmITIyEtnZ2XjppZdQXV2N++67T+7yiIjIzRhAiIjIpbRaLc6ePYs//elPKC8vR2BgICZOnIg33ngDw4YNk7s8IiJyM3bBIiIiIiIit+E0vERERERE5DYMIERERERE5DYMIERERERE5DYchO5B7HY7CgoKEBIS4rS6MRERERF5BlEUUV1djfj4+E4tpkotMYB4kIKCAiQkJMhdBhERERF1IDc3F3369JG7DK/EAOJBQkJCAEgndGhoqMzVEBEREVFzBoMBCQkJjus26joGEA/S2O0qNDSUAYSIiIjIg7G7/IVjxzUiIiIiInIbBhAiIiIiInIbBhAiIiIiInIbjgEhIiIin2G322E2m+Uug7yYWq2GUqmUuwyfxgBCREREPsFsNiMrKwt2u13uUsjLhYWFITY2lgPNXYQBhIiIiLyeKIooLCyEUqlEQkICF4ijCyKKIurq6lBcXAwAiIuLk7ki38QAQkRERF7ParWirq4O8fHxCAwMlLsc8mIBAQEAgOLiYkRHR7M7lgvw6wEiIiLyejabDQCg0WhkroR8QWOItVgsMlfimxhAiIiIyGewzz71BJ5HrsUAQkRERORDLr30UixZsqTT+589exaCIODAgQMuq4moKQYQIiIiIhkIgtDubfHixRd03M8//xxPPvlkp/dPSEhAYWEhUlNTL+j1uuKzzz7DhAkToNfrERISgmHDhuGBBx5w+euSZ+EgdCIiIqIGNruI9KxyFFcbER2iw/ikCCgVrumOU1hY6Ph93bp1eOyxx5CZmenY1jgYupHFYoFare7wuBEREV2qQ6lUIjY2tkvPuRDff/89FixYgGeeeQazZ8+GIAjIyMjADz/84LLXtNlsEASBs6J5GP5pEBEREQHYfKQQFz27FTe9vRP3rT2Am97eiYue3YrNRwo7fvIFiI2Nddz0ej0EQXDcNxqNCAsLw8cff4xLL70UOp0OH374IcrKynDTTTehT58+CAwMRFpaGtasWeN03OZdsPr164dnnnkGt912G0JCQtC3b1+89dZbjsebd8H66aefIAgCfvjhB4wdOxaBgYGYPHmyUzgCgKeeegrR0dEICQnBHXfcgYcffhgjR45s8/1+9dVXuOiii/Dggw9i8ODBGDRoEObOnYtXX33Vab8NGzZg7Nix0Ol0iIqKwvXXX+94rKKiAosWLUJ4eDgCAwNx9dVX4+TJk47HV61ahbCwMHz11VdISUmBVqtFdnY2zGYz/v73v6N3794ICgrChAkT8NNPP3XyT4p6GgMIERER+b3NRwrxxw/3obDK6LS9qMqIP364z2UhpCMPPfQQ7r33Xhw7dgwzZsyA0WjEmDFj8NVXX+HIkSO46667sHDhQuzatavd47zwwgsYO3Ys9u/fjz/96U/44x//iOPHj7f7nH/84x944YUXsGfPHqhUKtx2222Ox1avXo2nn34azz77LPbu3Yu+fftixYoV7R4vNjYWR48exZEjR9rc5+uvv8b111+PWbNmYf/+/Y4Q1Gjx4sXYs2cPNmzYgB07dkAURcycOdNptqq6ujosW7YM77zzDo4ePYro6Gjceuut+O2337B27VocOnQI8+bNw1VXXeUUXsh92AWLiIiIfI4oiqi32Dq1r80u4vENRyG2dhwAAoB/bcjAlIFRneqOFaBW9tgsSkuWLHFqAQCAv/3tb47f//KXv2Dz5s345JNPMGHChDaPM3PmTPzpT38CIIWal156CT/99BOGDBnS5nOefvppXHLJJQCAhx9+GLNmzYLRaIROp8Orr76K22+/HbfeeisA4LHHHsN3332HmpqaNo/3l7/8Bb/++ivS0tKQmJiIiRMnYvr06fj9738PrVbreM0FCxZg6dKljueNGDECAHDy5Els2LABv/32GyZPngxACkIJCQlYv3495s2bB0DqqrZ8+XLH806fPo01a9YgLy8P8fHxjs9w8+bNWLlyJZ555pk2aybXYAAhIiIin1NvsSHlsW975FgigCKDEWn/+q5T+2c8MQOBmp65xGr67T8gjWn497//jXXr1iE/Px8mkwkmkwlBQUHtHmf48OGO3xu7ejWu9t2Z5zSuCF5cXIy+ffsiMzPTEWgajR8/Hlu3bm3zeEFBQfj6669x+vRp/Pjjj9i5cyceeOABvPLKK9ixYwcCAwNx4MAB3Hnnna0+/9ixY1CpVE5BKzIyEoMHD8axY8cc2zQajVPt+/btgyiKGDRokNPxTCYTIiMj2/0MyDUYQIiIiIg8VPNg8cILL+Cll17Cyy+/jLS0NAQFBWHJkiUwm83tHqf54HVBEGC32zv9nMYWnabPad7KI4qttSG1NGDAAAwYMAB33HEH/vGPf2DQoEFYt24dbr311hYD7ztzfFEUnWoJCAhwum+326FUKrF3794Wq5oHBwd3qmbqWQwgRERE5HMC1EpkPDGjU/umZ5Vj8crdHe636tZxGJ/U8QxTAWplh/tcqF9//RVz5szBLbfcAkC6uD558iSGDh3qstdszeDBg5Geno6FCxc6tu3Zs6fLx+nXrx8CAwNRW1sLQGp1+eGHHxxdu5pKSUmB1WrFrl27HF2wysrKcOLEiXbf/6hRo2Cz2VBcXIypU6d2uUbqeQwgfu7HzGKMTQxHiK7jaf2IiIi8hSAIne4GNTW5F+L0OhRVGVsdByIAiNXrMDW5l8um5O2sgQMH4rPPPsP27dsRHh6OF198EUVFRW4PIH/5y19w5513YuzYsZg8eTLWrVuHQ4cOoX///m0+51//+hfq6uowc+ZMJCYmorKyEv/9739hsVhw5ZVXAgAef/xxXH755RgwYAAWLFgAq9WKb775Bn//+9+RnJyMOXPm4M4778Sbb76JkJAQPPzww+jduzfmzJnT5usOGjQIv//977Fo0SK88MILGDVqFEpLS7F161akpaVh5syZPf75UPs4C5afy6uox+pdOThT0vagMSIiIl+mVAh4/NoUAFLYaKrx/uPXpsgePgDg0UcfxejRozFjxgxceumliI2Nxdy5c91ex+9//3s88sgj+Nvf/obRo0cjKysLixcvhk6na/M5l1xyCc6cOYNFixZhyJAhuPrqq1FUVITvvvsOgwcPBiBNIfzJJ59gw4YNGDlyJC677DKnGb5WrlyJMWPG4JprrsGkSZMgiiI2bdrU4fooK1euxKJFi/DAAw9g8ODBmD17Nnbt2oWEhISe+UCoSwSxsx32yOUMBgP0ej2qqqoQGhrqltf8YGc2SqtNAIBRfcM84tsdIiKirjIajcjKykJSUlK7F8Ht2XykEEs3ZjhNxRun1+Hxa1NwVWpcT5Xqs6688krExsbigw8+kLuUbmvvfJLjes3XsAsWOezPqURBpREz02IRFqiRuxwiIiK3uio1DlemxLptJXRvVldXhzfeeAMzZsyAUqnEmjVr8P3332PLli1yl0ZegAGEnJwzGLF6Vw4uGxKNoXFM9URE5F+UCgGTBnBq1o4IgoBNmzbhqaeegslkwuDBg/HZZ5/hiiuukLs08gIMINSC2WrH5iNFyCmvw7TB0dCoOFSIiIiIzgsICMD3338vdxnkpXhlSW3KKDBgTXoOShrGiBARERERdRcDCLWrvNaMtek5OJhbKXcpREREROQDGECoQ1a7iK3Hi7HxYAGMFpvc5RARERGRF2MAoU47VVyD1btyUFBZL3cpREREROSlGECoSwz1FnyyJw/pWeXgEjJERERE1FUMINRldlHEb6dK8fm+fNSarHKXQ0RERERehAGELlhOeR1W78pGdlmt3KUQERERkZdgAKFuqTXZ8MX+fPx6sgR2O7tkERERdZYgCO3eFi9efMHH7tevH15++eUO99u/fz+uueYaREdHQ6fToV+/fpg/fz5KS0sv+LWJOsKFCKnbRBHYc7YC+RX1uDotDvoAtdwlERERXRi7DcjeDtScA4JjgMTJgELpkpcqLCx0/L5u3To89thjyMzMdGwLCAhwyes2Ki4uxhVXXIFrr70W3377LcLCwpCVlYUNGzagrq7OZa9rsVigVvNawZ+xBYR6TGGVEat3ZePkuWq5SyEiIuq6jA3Ay6nAe9cAn90u/Xw5VdruArGxsY6bXq+HIAhO23755ReMGTMGOp0O/fv3x9KlS2G1nh97+a9//Qt9+/aFVqtFfHw87r33XgDApZdeiuzsbPz1r391tKa0Zvv27TAYDHjnnXcwatQoJCUl4bLLLsPLL7+Mvn37OvY7evQoZs2ahdDQUISEhGDq1Kk4ffo0AMBut+OJJ55Anz59oNVqMXLkSGzevNnx3LNnz0IQBHz88ce49NJLodPp8OGHHwIAVq5ciaFDh0Kn02HIkCFYvnx5j3/G5JkYQKhHmSx2fHWoED8cOwerzS53OURERJ2TsQH4eBFgKHDebiiUtrsohLTl22+/xS233IJ7770XGRkZePPNN7Fq1So8/fTTAIBPP/0UL730Et58802cPHkS69evR1paGgDg888/R58+ffDEE0+gsLDQqaWlqdjYWFitVnzxxRdtzmyZn5+Piy++GDqdDlu3bsXevXtx2223OYLQK6+8ghdeeAHPP/88Dh06hBkzZmD27Nk4efKk03Eeeugh3HvvvTh27BhmzJiBt99+G//4xz/w9NNP49ixY3jmmWfw6KOP4r333uupj5A8GLtgkUscyqtCQZURM1NjERmslbscIiLyN6IIWDrZjchuA775O4DWLsJFAAKw+SGg/6Wd646lDgTaaHXorKeffhoPP/ww/vCHPwAA+vfvjyeffBJ///vf8fjjjyMnJwexsbG44ooroFar0bdvX4wfPx4AEBERAaVSiZCQEMTGxrb5GhMnTsT/+3//DzfffDPuuecejB8/HpdddhkWLVqEmJgYAMDrr78OvV6PtWvXOrpNDRo0yHGM559/Hg899BAWLFgAAHj22Wfx448/4uWXX8brr7/u2G/JkiW4/vrrHfeffPJJvPDCC45tSUlJjqDV+J7JdzGAkMuUVpuwJj0Hlw6ORmpvvdzlEBGRP7HUAc/E99DBRKll5N8Jndv9/xUAmqBuveLevXuxe/duR4sHANhsNhiNRtTV1WHevHl4+eWX0b9/f1x11VWYOXMmrr32WqhUXbu0e/rpp3H//fdj69at2LlzJ9544w0888wz+OWXX5CWloYDBw5g6tSprY7ZMBgMKCgowJQpU5y2T5kyBQcPHnTaNnbsWMfvJSUlyM3Nxe23344777zTsd1qtUKv5/WCP2AAIZey2ERsyTiHnPI6XD40GlqVawbyERER+RK73Y6lS5c6tRo00ul0SEhIQGZmJrZs2YLvv/8ef/rTn/Cf//wHP//8c5cHeEdGRmLevHmYN28eli1bhlGjRuH555/He++916mB8M3HmIii2GJbUND5QGa3S1203377bUyYMMFpP6WS1wn+gAGE3CKzqBrnDEbMTItDTKhO7nKIiMjXqQOllojOyN4OrL6h4/1+/6k0K1ZnXrubRo8ejczMTAwcOLDNfQICAjB79mzMnj0bf/7znzFkyBAcPnwYo0ePhkajgc1m6/LrajQaDBgwALW10hpfw4cPx3vvvdfqzFWhoaGIj4/Htm3bcPHFFzu2b9++3dEdrDUxMTHo3bs3zpw5g9///vddrpG8HwMIuU1lnQXrdudiysBIjO4b3uasHERERN0mCJ3vBjXgMiA0Xhpw3uo4EEF6fMBlLpuSt7nHHnsM11xzDRISEjBv3jwoFAocOnQIhw8fxlNPPYVVq1bBZrNhwoQJCAwMxAcffICAgAAkJiYCkNYB+eWXX7BgwQJotVpERUW1eI2vvvoKa9euxYIFCzBo0CCIooiNGzdi06ZNWLlyJQDg//7v//Dqq69iwYIFeOSRR6DX67Fz506MHz8egwcPxoMPPojHH38cAwYMwMiRI7Fy5UocOHAAq1evbvf9/etf/8K9996L0NBQXH311TCZTNizZw8qKipw//339/wHSh6FAYTcymYX8cuJUuSW12PGsFgEaNjUSkREMlMogauelWa7ggDnENLwZdlV/3Zb+ACAGTNm4KuvvsITTzyB5557Dmq1GkOGDMEdd9wBAAgLC8O///1v3H///bDZbEhLS8PGjRsRGRkJAHjiiSdw9913Y8CAATCZTK3OcpWSkoLAwEA88MADyM3NhVarRXJyMt555x0sXLgQgNQ9a+vWrXjwwQdxySWXQKlUYuTIkY5xH/feey8MBgMeeOABFBcXIyUlBRs2bEBycnK77++OO+5AYGAg/vOf/+Dvf/87goKCkJaWhiVLlvTgp0ieShDbmneN3M5gMECv16OqqgqhoaFuec0PdmajtNrkltdqLlirwlWpsUiI6H5TNRER+Tej0YisrCwkJSVBp7vArr4ZG6TZrppOxRvaWwofKbN7plDyCu2dT3Jcr/katoCQbGpMVny2Lw/jkyIwMSkSCgW7ZBERkYxSZgNDZrltJXQif8UAQrISRWDXmXLkVdTj6tRYhOi6NnMHERFRj1IogaSpcldB5NO4Ejp5hPyKeny4MwenS2rkLoWIiIiIXIgBhDyG0WLDhgMF+DGzGDY7hyYRERER+SIGEPI4B3IqsXZ3DipqzXKXQkREREQ9jAGEPFKxwYSP0nNwrNAgdylERORFOLkn9QSeR67FAEIey2y1Y/ORImw+UgSz1S53OURE5MGUSmmmKrOZrefUfXV1dQDQYvV36hmcBYs83rFCA84ZjLg6LRbRIRc4tzsREfk0lUqFwMBAlJSUQK1WQ6Hgd6zUdaIooq6uDsXFxQgLC3MEW+pZDCDkFcprzViXnoupg3phZEKY3OUQEZGHEQQBcXFxyMrKQnZ2ttzlkJcLCwtDbGys3GX4LAYQ8hpWu4gfjxcjt7wOV6bEQKfmtxJERHSeRqNBcnIyu2FRt6jVarZ8uBgDCHmdU8U1DV2y4tA7LEDucoiIyIMoFArodOyuS+TJ2EGSvFK10YpP9+Rh15kyzlRBRERE5EUYQMhr2UUR20+X4fN9+ag1WeUuh4iIiIg6gQGEvF5OeR0+3JmNs6W1cpdCRERERB1gACGfUGe2Yf2BfPx6sgQ2O7tkEREREXkqBhDyGaII7DlbgU/25KKqziJ3OURERETUCgYQ8jmFVUasTs/GiXPVcpdCRERERM0wgJBPMlns+PpQIb7POAeLzS53OURERETUwG8DyPLly5GUlASdTocxY8bg119/bXf/119/HUOHDkVAQAAGDx6M999/3+nxVatWQRCEFjej0ejKt0EdOJxfhbXpOSirMcldChERERHBTxciXLduHZYsWYLly5djypQpePPNN3H11VcjIyMDffv2bbH/ihUr8Mgjj+Dtt9/GuHHjkJ6ejjvvvBPh4eG49tprHfuFhoYiMzPT6blcDEl+pTVmrEnPwSWDopHWRy93OURERER+TRD9cBW3CRMmYPTo0VixYoVj29ChQzF37lwsW7asxf6TJ0/GlClT8J///MexbcmSJdizZw+2bdsGQGoBWbJkCSorKy+4LoPBAL1ej6qqKoSGhl7wcbrig53ZKK32n9aBwbEhuHxoNLQqpdylEBERkReS43rN1/hdFyyz2Yy9e/di+vTpTtunT5+O7du3t/ock8nUoiUjICAA6enpsFjOz7ZUU1ODxMRE9OnTB9dccw3279/fbi0mkwkGg8HpRq6VWVSN1TtzUFTFrnFEREREcvC7AFJaWgqbzYaYmBin7TExMSgqKmr1OTNmzMA777yDvXv3QhRF7NmzB++++y4sFgtKS0sBAEOGDMGqVauwYcMGrFmzBjqdDlOmTMHJkyfbrGXZsmXQ6/WOW0JCQs+9UWpTVb0FH+/Jxd7scvhhAyARERGRrPwugDQSBMHpviiKLbY1evTRR3H11Vdj4sSJUKvVmDNnDhYvXgwAUCqlrjwTJ07ELbfcghEjRmDq1Kn4+OOPMWjQILz66qtt1vDII4+gqqrKccvNze2ZN0cdstlF/HKiFF8eKECd2Sp3OURERER+w+8CSFRUFJRKZYvWjuLi4hatIo0CAgLw7rvvoq6uDmfPnkVOTg769euHkJAQREVFtfochUKBcePGtdsCotVqERoa6nQj98oqrcXqnTnILa+TuxQiIiIiv+B3AUSj0WDMmDHYsmWL0/YtW7Zg8uTJ7T5XrVajT58+UCqVWLt2La655hooFK1/hKIo4sCBA4iLi+ux2sk1akxWfLYvD9tPlcJuZ5csIiIiIlfyy2l477//fixcuBBjx47FpEmT8NZbbyEnJwf33HMPAKlrVH5+vmOtjxMnTiA9PR0TJkxARUUFXnzxRRw5cgTvvfee45hLly7FxIkTkZycDIPBgP/+9784cOAAXn/9dVneI3WNKAK7ssqRV1GPq9JiEapTy10SERERkU/yywAyf/58lJWV4YknnkBhYSFSU1OxadMmJCYmAgAKCwuRk5Pj2N9ms+GFF15AZmYm1Go1pk2bhu3bt6Nfv36OfSorK3HXXXehqKgIer0eo0aNwi+//ILx48e7++1RN+RX1mP1zhxcmRKDgdHBcpdDRERE5HP8ch0QT8V1QDzLyIQwTE2Ogkrpdz0ViYiIqA1cB6T7eGXlp2x2ETtOl+FQXiXyKupgZw5t4UBuJdbtyUVFrVnuUoiIiIh8hl92wfJ3m48UYunGDBQ2WYwvWKvCJYN6sdtRM8UGEz5Kz8G0wdFIiee3HERERETdxRYQP7P5SCH++OE+p/ABSDNBfX24EKeKa2SqzHOZrXZ8e7QIm48UwWy1y10OERERkVdjAPEjNruIpRsz0F5nq59PlLA7VhuOFRrw0a5sFFcbO96ZiIiIiFrFAOJH0rPKW7R8NFdjsqKgst5NFXmfijoL1qXnYn9OhdylEBEREXklBhA/0tlv7mtNNhdX4t2sdhE/ZZZgw8ECGC38rIiIiIi6ggHEj0SH6Dq1X4CGp0VnnC6uwYc7s5HPFiMiIiKiTuOVph8ZnxSBOL0OQgf7/XaqFOcMHOfQGdVGKz7dk4edZ8rAJXWIiIiIOsYA4keUCgGPX5sCAG2GEJVCQHG1GWt35+LH48XsYtQJdlFaU+WzffmoMVnlLoeIiIjIozGA+JmrUuOw4pbRiNU7d8cK1qowKy0Oiyf3w+DYEADAofwqvL8jG8cKDfx2vxNyy+uwemc2zpbWyl0KERERkccSRF5ZegyDwQC9Xo+qqiqEhrp20TubXUR6Vjk+358Hu11EfFgAFML5dpHc8jr8lFmC8jppFfD4MB2mDY5GVLDWpXX5AkEARvcNx5SBUVAqOurwRkRERN7EnddrvooBxIPIcUJ/sDMbpdWmVh+z2UXsz6nArqxyWO0iBAEYlRCGCUmR0KjYeNaRWL0OM1PjoA9Uy10KERER9RAGkO7jVSS1SakQMLZfBBZOSsSAXkEQRWBfTiU+2JmNk+eq2S2rA0VVRny4KxsnzlXLXQoRERGRx2AAoQ6F6tS4Zng8Zo+IR6hOhRqTFZuOFGH9gQJUNHTRotaZrXZ8fagQWzLOwWKzy10OERERkewYQKjTkqKCsHBiIsYnRUApCMgpr8PqnTnYcboMVl5ct+tIfhXWpuegtKb17m5ERERE/oIBhLpEpVRgUv9I/H5iXyRGBMImikg/W44PdmYji7M/tau0xoy16Tk4nFcldylEREREsmEAoQsSHqjBnJHxmJkai2CtCgajFRsOFuCrQwUwGC1yl+exLDYR3x87h68PFXKNFSIiIvJLKrkLIO8lCAKSY0KQGBmEXVll2J9bidMltcguq8P4pAiM7hvOaWjbcOJcNc4ZjJiZFtdiTRYiIiIiX8YWEOo2jUqBqcm9cPP4vogP08FqF7H9dBlW78pGbnmd3OV5rKp6Cz7ek4s9Z8s5oxgRERH5DQYQ6jFRwVrcMLoPpqfEIECtREWdBZ/vz8fmI0WoNVnlLs8j2ewifj1ZivUH8lFn5mdEREREvo8BhHqUIAgYGheKRZMSMby3HgCQea4a7+/IxoHcStjt/Ka/NWdLpRnFcsrYYkRERES+jQGEXEKnVmLakGgsGJeAmFAtzDY7fj5RgrW7c1FYVS93eR6pxmTF5/vz8NupUgY1IiIi8lkMIORSMaE63Dg2AdMG94JWpUBJjQkf78nD98fOoZ6zQLUgikB6Vjk+3ZvH2cSIiIjIJzGAkMspBAHD+4Rh0aREDI0LAQAcLTDg/R1ncSS/igOwW5FfWY/VO3NwqrhG7lKIiIiIehQDCLlNoEaF6SmxuGFMH0QGa2C02PHD8WJ8vCcPJdVcIbw5o8WGjQcL8OPxYq40T0RERD6DAYTcrndYAG4a1xdTk6OgVgooMhixJj0HP2eWwGRlt6zmDuRWYu3uXJTXmuUuhYiIiKjbGEBIFkqFgNF9w7FoYj8kRwdDBHAgrxLv78hGZlE1u2U1U1Jtwpr0HBwtqJK7FCIiIqJuYQAhWQXrVJiZFoe5I+MRFqBGndmGzUeL8Pn+fH7j34zZasd3R89h85EimK3skkVERETeiQGEPEJiZBB+P7EvJvWPhFIhIK+iHqt3ZeO3U6WwcPyDk2OFBny0KxvFBqPcpRARERF1GQMIeQyVQoHxSRFYODERSVFBsIvAnuwKfLAzG6dLatgtq4mKOgvW7s7FvpwKuUshIiIi6hIGEPI4+gA1Zo+Ix7XD4xCiU6HaaMVXhwqx4WABquq5NkYjm13Ez5kl+PJAPoxcU4WIiIi8BAMIeaz+vYKxcGIixvULh0IAzpbV4YOd2diVVcZpaZs4U1KLD3dmI6+iTu5SiIiIiDrEAEIeTa1UYPKAKPx+QiISwgNgs4vYeaYcH+7KQXZZrdzleYxqoxWf7c3HzjNl7KpGREREHo0BhLxCRJAG143qjauGxSJIo0RVvQXrDxRg0+FCVBvZLQsA7KKIHafL8OnePNSYrHKXQ0RERNQqBhDyGoIgYHBsCBZOSsTIhDAIAE4W1+CDndnYl10Bm53f/AOQZhDbmY2sUrYQERERkedhACGvo1UpccmgXrhpfF/E6XWw2ET8eqoUa9JzkF9RL3d5HqHObMOXB/Lx84kSBjMiIiLyKAwg5LV6hWgxb0wfXDE0Gjq1AmW1Zny6Lw/fZRShzswuSKII7MuuwMd7clFZx0UdiYiIyDMwgJBXEwQBw+L1WDSpH1LjQwEAxwqr8f6ObBzKq4SdA7JRVGXE6l05yCyqlrsUIiIiIgYQ8g0BaiUuHxqD+WMT0CtEC5PVjh8zS7Budy6KuGI4zFY7Nh0uxJaMc1xZnoiIiGTFAEI+JVavw4JxCbh0UC9olAoUV5uwbncuth4v5mJ9AI7kV2FNeg5Ka0xyl0JERER+igGEfI5CEDAiIQyLJiViSGwIAOBwfhXe35GNjEKD36+TUVZjxtr0HBzKq5S7FCIiIvJDDCDks4K0KswYFovfje6NiCAN6i02bMk4h0/35vl9C4DFJuKHY8X46lABW4aIiIjIrRhAyOf1CQ/EzeP7YsrASKgUAgqqjPgoPQe/nCyB2erf4yFOnqvB6l05KKzi9MVERETkHgwg5BeUCgFjEyOwcFIiBvQKgigC+3Mq8f7Oszh5rtqvu2UZ6i34eHcedp8t9+vPgYiIiNyDAYT8SqhOjWuGx2POiHjoA9SoNdmw6UgR1h8oQIUfr5VhF0VsO1mKL/bncw0VIiIicikGEPJL/aKCcMuEvpiQFAGlQkBOeR1W78zBjtNlsPrxNLXZZXX4cGc2csrq5C6FiIiIfBQDCPktlVKBif0jccuEvkiMDIRNFJF+thwf7MzGmdIaucuTTa3Jhs/35+G3U6Ww29kli4iIiHoWAwj5vbBADeaMiMestDgEa1UwGK3YeLAQGw8WwFBvkbs8WYgikJ5Vjk/25sJg9M/PgIiIiFyDAYQIgCAIGBgdjIUTEzGmbzgUAnCmtBYf7MzG7rPlsPlpS0BBpRGrd+bgVHG13KUQERGRj2AAIWpCo1LgouQo3Dy+L3qHBcBqF7H9dBlW78pGbrl/joswWmzYeLAQW4+f8+vxMURERNQzGECIWhEZrMXvRvfGjJQYBKiVqKiz4PP9+fjmSCFqTf45S9TB3Cqs2Z2L/Mp6v20RIiIiou5TyV0AkacSBAFD4kKRFBWEHWfKcCivCifO1eBsaR0m9o/AiD5hUCgEuct0q9JqEz7enQuVQkCvEC1i9TrE6QMQq9dBH6CWuzwiIiLyAgwgRB3QqpW4dHA0hsaF4sfMYpwzmPDLyVJkFBpw2ZBoxOkD5C7R7ax2EYVVRhRWGbEflQCAIK0SsfoAxOl1iA3VISZUB42KjaxERETkjAGEqJNiQnWYPzYBRwoM+O1UKUprzPh4Tx6GxYdiyoAoBGiUcpcoq1qTDaeLa3C6WJrCWCEIiAzWIDZU19BSokNEkAaC4F+tRkREROSMAYSoCwRBQFpvPQb0CsJvp8qQUWjA0QIDThfXYMrAKAyLD+UFdgO7KKKk2oSSahMO51cBALRqRZNAIrWW6NT+HdyIiIj8DQMI0QUI1KhwZUoMhsVL3bJKa8z44XgxjhYYMG1IL0SH6OQu0SOZLHZkl9Uhu8lK6+GB6vNdt/Q69ArW+t3YGiIiIn/CAELUDfFhAbhpXF8czKvEjjNlKDIYsTY9F8P76DFpQCS0Kn6735GKOgsq6iw4VmgAAKiVAqJDznfbigsLQLCW/1QRERH5Cv6vTtRNCoWAUX3DkRwTgl9PluDEuRoczKvCyeIaTE2OwuCYEHbL6gKLTUR+ZT3yK+sd20J0KkcgidUHIDpEC7WSA9yJiIi8EQMIUQ8J1qpwdWochsXX4afMYlTUWfDt0XM4mm/AtCHRiAjSyF2i16o2WlFtrMHJc9IAd6VCQFSwFnF6abatOL0O4fx8iYiIvAIDCFEP6xsRiJsn9MW+nErszipHXmU9Vu/Kxqi+4ZiQFMFv7nuAzS7inMGIcwajY1uARuk041ZMKAe4ExEReSIGECIXUCkUGN8vAkNiQvDziRKcKa3F3uwKZBZV45JBvTCgVxC7ZfWwerMNWaW1yCqtBQAIAhARJE0D3LhYYmSQhgPciYiIZMYAQuRCoQFqXDsiHmdKavDTiRJUG634+nAh+kUG4tLB0Vw93IVEESirMaOsxoyjBdIAd41KgegQrSOQxOl1COIAdyIiIrfi/7xEbtC/VzASIgKx+2w59mZX4GxZHT7YmY1xieEYkxgOFbtluYXZakdeRT3yKs4PcA8NUDumAI7T6xAdooOSrSREREQuI4iiKMpdBEkMBgP0ej2qqqoQGhrqltfcfbYc6VnlMFvtbnk9AipqzfjxRDFyy6WLYH2AGtMG90JiZJDMlREAqBQCeoVoEdsYSkIDoA9kSxUREUnkuF7zNQwgHkSuE9poseFgbiX251ai3mxz2+v6M1EUcbK4Br+cKEFtw2c+MDoYFydHIUTHi11PE6RVNsy2FeAY4K5RsdWKiMgfMYB0HwOIB5H7hDZb7TicX4V92RWoMVnd/vr+yGS1YdeZchzIq4QoSovwTUiKxMiEMHYD8mAKQUBEsAZxTWbdigjScGIBIiI/IPf1mi9gAPEgnnJCW212ZBQasPtsBQz1Ftnq8Ccl1Sb8mFmMwippWtnIIA2mDY5G7/AAmSujztKqFYgJ0TUZTxKAAA2nASYi8jWecr3mzRhAPIinndB2u4jjRdXYfbYc5bVmucvxeaIoIqPQgN9OlaHeInXLGhobgikDozhTk5cKC1Q7Vm+P0+sQFaxlyxYRkZfztOs1b8QA4kE89YQWRRGnimuwK6scJdUmucvxeUaLDb+dLsWR/PNTx04eEIm03noo2MXHq6mVAqJDmiyWqNchlGN+iIi8iqder3kTvx1FuXz5ciQlJUGn02HMmDH49ddf293/9ddfx9ChQxEQEIDBgwfj/fffb7HPZ599hpSUFGi1WqSkpOCLL75wVfluJQgCkmNCcMvERMwd1RvxYTq5S/JpOrUSlw+JwfyxCYgO0cJsteOnzBKs252LoiYrf5P3sdhE5FfWY292Bb46VIj//ZqFd349g40HC7DnbDnyKupgsXFGOiIi8m1+2QKybt06LFy4EMuXL8eUKVPw5ptv4p133kFGRgb69u3bYv8VK1bgoYcewttvv41x48YhPT0dd955Jz766CNce+21AIAdO3Zg6tSpePLJJ3Hdddfhiy++wGOPPYZt27ZhwoQJnarLmxJ1bnkd0rPKkVNeJ3cpPs0uijicV4XtZ8ocUyWn9dZj8oBI6NQcX+CLFIKAqBCN1HUrVOq6FR6kkbssIiJq4E3Xa57KLwPIhAkTMHr0aKxYscKxbejQoZg7dy6WLVvWYv/JkydjypQp+M9//uPYtmTJEuzZswfbtm0DAMyfPx8GgwHffPONY5+rrroK4eHhWLNmTafq8sYTuqjKiF1ZZcgqrYX/nUnuU2uyYtupUhwvqgYABKiVuGhgFIbGhXDmJT+gUysd0/82DnJnACUikoc3Xq95Gr8b2Wo2m7F37148/PDDTtunT5+O7du3t/ock8kEnc6521FAQADS09NhsVigVquxY8cO/PWvf3XaZ8aMGXj55Zd7tH5PE6vXYc7I3iipNmH32XKcOFfNIOICQVoVZgyLxbD4UPyYWYLyWjO2HDuHowVVmDYkGlHBWrlLJBcyWmzIKq1FVmktAEAQgPBAjWMsSaxeh6ggLRQc4E5ERF7A7wJIaWkpbDYbYmJinLbHxMSgqKio1efMmDED77zzDubOnYvRo0dj7969ePfdd2GxWFBaWoq4uDgUFRV16ZiAFGxMpvODug0GQzfembx6hWgxMy0Ok/pHYvfZchwvqobNziTS0/qEB+Lm8X1xILcSu7LKUFBlxEfpORjZJwwT+0dycTw/IYpAea0Z5bVmZBScn6wgOkSLOH2AI5hw9jQiIvJEfvu/U/NuK6IottmV5dFHH0VRUREmTpwIURQRExODxYsX47nnnoNSeb4bRFeOCQDLli3D0qVLu/EuPE94kAbTh8Vi4oBI7D1bgSP5VbAyiPQopULAmMRwDIoJxi8nSnGqpAb7cytxorgaFyf3QnJ0MLtl+SGz1Y68inrkVdQ7toXoVE6BJDpEC5WSIZWIiOTld/8TRUVFQalUtmiZKC4ubtGC0SggIADvvvsu6urqcPbsWeTk5KBfv34ICQlBVFQUACA2NrZLxwSARx55BFVVVY5bbm5uN9+d5wjVqTFtSDRuuygJY/uF85t5FwjRqTFreBzmjIyHPkCNWpMN3xwpwhcH8lFRx3VbCKg2WnHiXDV+OSHNorb8p9NYk56DHzOLcbzIgKo6LjRKRETu57eD0MeMGYPly5c7tqWkpGDOnDmtDkJvzSWXXILevXvjo48+AiANQq+ursamTZsc+1x99dUICwvz6UHonWW02LA/pxIHcithbFhkj3qO1WbHnuwK7MmugM0uQilIrSRj+4VDzW+8qR2BGiVi9TrEhkqrt8fotdCqOMCdiKgtvny95i5+2QXr/vvvx8KFCzF27FhMmjQJb731FnJycnDPPfcAkFom8vPzHWt9nDhxAunp6ZgwYQIqKirw4osv4siRI3jvvfccx7zvvvtw8cUX49lnn8WcOXPw5Zdf4vvvv3fMkuXvdGolJg2IxJjEcBzKq8S+nArUmhhEeopKqcDE/pEYEhuCn06UILusDulny3G8yIBLBvdC/6hguUskD1VntuFMSS3OlJwf4B4ZpHGs3h6r1yEySMNufURE1GP8MoDMnz8fZWVleOKJJ1BYWIjU1FRs2rQJiYmJAIDCwkLk5OQ49rfZbHjhhReQmZkJtVqNadOmYfv27ejXr59jn8mTJ2Pt2rX45z//iUcffRQDBgzAunXrOr0GiL/QqBQY2y8CIxPCcKTAgD1ny1FttMpdls8IC9Rgzoh4nC6pxc8nSmAwWrHxYCH6RwXhkkG9EBrAVbepfaIIlNaYUVpjxpH8KgDS39vYJlMAx+kDEKBhKwkREV0Yv+yC5an8sUnPZhdxrFAKIhXsj96jLDY7dmWVY39OBewioFIIGJcUgdF9w6BSsFsWdU9YoBqxoecDSa8QLZScBpiI/IA/Xq/1NAYQD+LPJ7QoijhxrgbpZ8tRWm3q+AnUaWU1JvyYWYL8Sml2pPBANS4dHI2+EYEyV0a+RKUQEB2qdeq6FapjixsR+R5/vl7rKQwgHoQntBREzpTWYndWOQqrjHKX4zNEUUTmuWr8erIUdWZp7M2gmGBMTe6FYK4VQS4SrFUhtmH638hgLaKCNdAHqDmehIi8Gq/Xuo8BxIPwhHaW0zCQOre8Tu5SfIbJYsOOM2U4lFcFEYBGqcDE/hEY0SeMq2iTW6iVAiKCtIgM1iAqWIPIht9D2FpCRF6C12vdxwDiQXhCt66gsh67z5Y7Zumh7is2GLE1sxjnDFJ3t6hgDaYNjkZ8WIDMlZG/0qoViAw6H0iigrWICtZysDsReRxer3UfA4gH4QndvuJqI3ZnVeBkcTV41nafKIo4WmDAtlOlMFntAICUuFBcNDCKF33kMQI1SkQGN4SShnASGazhWiVEJBter3UfA4gH4QndOeW1Zuw+W47jhdWw8/TttnqzDb+dLsXRAgMAQKdSYPLAKKTGh7KvPnkkQZDGl0Q1BJPIIGl8SUSQBiouvElELsbrte5jAPEgPKG7pqregr3Z5Tiab4DVztO4uwoq6/FjZjFKa8wAgNhQHaYN7oXoUB0AwC6KKKisR63JhiCtEvFhAVAwoJAHUQgC9AGq8y0mwVpEBmkQHqjhGCci6jG8Xus+BhAPwhP6wtSYrNiXXYHD+VUwN3Qlogtjt4s4mFeJnWfKYbbZIQAY3kePmFAdtp8uQ43p/KKRwVoVLhnUCwOjuco6eTaVQkBYkAZRQRqn7lyhASq28hFRl/F6rfsYQDwIT+juqTfbsD+3AgdyK2GyMIh0R43Jil9PluDEuZoO952VFscQQl5Jo1IgIkgjDX5vmCY4MljLqamJqF28Xus+BhAPwhO6Z5isNhzKq8K+7ArHmhd0YbLLavHlwYJ2B/0Ha1W4dUo/dscinxGgUSIiyHma4KhgLXRqDnwnIl6v9QR+zUM+R6tSYly/CIxMCMOR/Crsza5AtdHa8ROpBaVC6HDGsRqTFSfOVWNwTAi7s5BPqDfbkG+uR35FvdP2YK2qYRYuaWxJ4yB4NQe+ExF1CVtAPAgTtWvY7CKOFRqw+2w5KusscpfjVTKLqrH5aFGn9tWoFOgVrEWvYC2iQjToFaKVZiVS8OKMfJcgAKE69flB7w2tJhFBGig58J3IJ/F6rfvYAkI+T6kQkNpbj5S4UJworsburHLHTE/UviBt57qcKACYrXbkV9Yjv/L8t8YKAQgP0kjBJKQxnGgRwK4s5CNEUZqRr6re4rRYqlIhICxQ3aQLlxRMwgLVbCkkIr/HAEJ+Q6EQMCQ2FINjQnC6pBbpWeU4ZzDKXZZHiw8LQLBW5TT7VXPBWhUWTUpEVb0FJdUmlNSYpJ/VJpisdpTVmFFWY8bxomqn5zQGkl4h0i1UxxmJyHfY7KLj3Me589vVSgHhQefXLmmclStUp5avWCIiN2MXLA/CJj33yy6rxa6s8hZ9vem8U8U1+PpwYZuPtzULliiKqDFZnUJJaY0ZVfWtd4PTKBVS162GVpJeDf3subAc+QOtWiHNxtVk0HtUsBYBGrYWEnkaXq91HwOIB+EJLZ/8ynrszipHVmltxzv7oVPFNfj5REmPrANistpQWm1Gac35YFJWY4atlX+KBAGICNQ4dd/qxYsy8iOBGqXT2iXSIHgNtCr+HSCSC6/Xuo8BxIPwhJZfscGI9LPlOFVc0+HsT/7GlSuh2+wiKurMKG3ahavGBGMb67k0duGKCj4/vkQfwL715D9CdCqnQe9RwRpp0ge2GBK5HK/Xuo8BxIPwhPYcZTUm7D5bgcyiatj5V0QWji5cNSaUVpsdwaStLlxqpYCoJoPde4WwCxf5F4UgQB+gOt9i0tCNMTxQAwVn5CLqMbxe6z4GEA/CE9rzVNVZsPtsOTIKDbDZ+VfFE5itdqn7VpPWkrJac6t/Po1duBq7bkUFS925AjWcf4P8h0ohICxIg6ggjVN3rtAATvxAdCF4vdZ9DCAehCe056o2WrA3uwJH8qtgsfGvjKexN3ThajrYvaTahHqLrdX9g7TKFlMDh7ELF/kZjUqBiCCNNPg9+PysXMFaBnSi9vB6rfsYQDwIT2jPV2e2Yn9OJQ7mVcLUxvgE8gyiKKLWbHO0lJQ2TA1c2UEXrqbduLjKNfmjAI0SEUHn1y5p7M6l4/o9RAB4vdYTGEA8CE9o72G02HAorwr7cipQb279W3byTI4uXI2hpEZqMWm1CxeA8ECNY2X3xlYTduEifxSsVTXMwiWNLYkKllZ816gY0sm/8Hqt+xhAPAhPaO9jsdlxOL8K+7IrUG1se7E+8mx2u4jKVhZSbLMLl0bpGFfSGEz0geoemxWMyFsIAhCqU58f9N7QahIRpIGSA9/JR/F6rfsYQDwIT2jvZbOLyCgwYPfZ8jZnaSLvIooi6pp04Wr8WVnX+p+vStHKLFzswkV+SiEICA9SN+nCJQWTsECOtSLvx+u17mMA8SA8ob2f3S4i81w1dp8tR1mNWe5yyAUsNudZuBoXVbS20YUrLFDtFEqigrUI4iBf8lNqpYDwoPNrlzTOyhWqU8tdGlGn8Xqt+xhAPAhPaN8hiiJOl9RgV1Y5ig0mucshF7OLIirrLM4D3mtMqGtjfFCgRum0snuvEOmbYXbhIn+lVSuk2biCtIgI1iBQo4RaqYBGqYBWpYCm8aZUcG0fkh2v17qPAcSD8IT2TVmltdidVY78ynq5SyE3qzVZW6xZUtFBF66oEI1Tawm7cBE5UyoEKZw0hBJtk98d2xt+apsEF3Xz7UoFF2ikC8Lrte5jAPEgPKF9W15FHdKzypFdVid3KSQji82OsoZ1Ss6vW9J6Fy6goQtXs7ElgRol+9ET9QC10jnMNA8uja0wjrCjUkCjVEKtEpy2a5QK/p30I7xe6z4GEA/CE9o/FFUZkX62HGdKasC/fQRIXbiqGmfhatKNq7aNLlwBaqUUSJqs8B4eqOG3uUQyEQRA3dBdrHkrTPNw0zy4NN/GVk/Px+u17mMA8SA8of1LaY0Ju7PKceJcDez8a0itcHThamwpqTajos6M1s4WpUJAVLDGaWxJVLCWazQQeRmFIDQJKE1/VzYJKYKjNaZFyGkSZjgVsmvweq37GEA8CE9o/1RZZ8busxU4VmhodTE8oqYcXbicFlI0wWJrowtXgDQLV9MB70HswkXkF1QKwallpen4l6ahpXF8TPMB/02389+M83i91n0MIB6EJ7R/qzZasCe7Akfzq9q8mCRqjShKCymWNluzpNbUdheupoPdewVr2YWLiNrU2MWseVcxTSvBpel+bU0C4O14vdZ9DCAehCc0AUCd2Yp92ZU4mFcJs9UudznkxerM1oZB7udbTMrrzK2OPVIqBEQGaVqsWdKdiwW7KKKgsh61JhuCtErEhwVwqmEiP6cQBMcgfm0rYabpgP9WtzfpdiZXFzNer3UfA4gH4QlNTRktNhzIrcSB3ErUtzEYmairrDY7ympbzsLVVqubPuD8LFyNrSbBWlWH3TFOFdfg5xMlqDFZHduCtSpcMqgXBkYH9+h7IiL/pGzoYhYbqsPcUb3d9rq8Xus+BhAPwhOaWmO22nE4vxL7siudLuaIeorYdBaumoYWk2pTm+ebTq1w6r4VFSJ14Wr8NvJUcQ2+PlzY5uvNSotjCCGiHhMVosXCiYluez1er3WfSu4CiKh9GpUCYxIjMKJPGI4WGLAnuwKG+tYXsyO6EIIgICxQg7BADZJjQhzb6802p8HuJQ1duIwWO3Ir6pFbcX5xzcYuXJFBGpwurW339X4+UYL+vYLYHYuIyE8xgBB5CZVSgREJYUjrrcexIgP2nK1Aea1Z7rLIhwVolOgbEYi+EYGObY4uXI3BpGGMidlmR3G1CcXVpg6PW2OyYndWOfqEB0KnViBAo4ROpeQgeCIiP8EAQuRlFAoBw+L1SIkLxcniGqRnlaOkExd9RD1BpVQgJlSHmFCdY5soijAYpQHvxwsNHbaAAMDOrHIgq9xpm1YlhZEAtXTTqZXO9zUKx+8BamkgKqcGJSLyPgwgRF5KEAQMignBoJgQnCmpwe6z5SioNMpdFvkhQRCgD1BDH6CGTq3oVACJCFLDLgJGsw3GhtneTFY7TFY7KtG5LoYKAVJIcQSUpuGlWZhp+J2rTBMRyY8BhMgH9O8VjP69gpFbXof0rHLklNfJXRL5qfiwAARrVe1OmBCsVeH3ExIdY0DsdhFGqw31ZhuMFjvqLTbpZpZ+Gpvcb/zdYhNhF4E6sw11XZglTqUQHMHEObw0aV3RnH9Mp1ZyNWkioh7GAELkQxIiApEQEYjCqnqkZ5XjTEnH30QT9SSFIOCSQb3anQXrkkG9nAagKxQCAjUqBGo6/1+S1WZvCCd2p3BSZ7HB2BBcmocXuwhY7SKqjVZUGzs/o5xWpTgfVjQNrStN7jfvLsZVo4mI2scAQuSD4vQBmDOyN0qqTdh9thwnzlW3uvgckSsMjA7GrLQ4l64DolIqEKJUIETX8b6ANE7FbLNLgaWVlhXHfcfvUrABzncNq+rk7HOCAOhUTcOJwimstOwupoRaKTC0EJHfYAAh8mG9QrSYmRaHSf0jsftsOY4XVcNmZxIh1xsYHYz+vYI8ZiV0QRCgVSmhVSmhD1B36jl2UYSpSZewpgGlvkVLixRszDY7RBGO7Z2lVAitdgdrMRC/yX12DSMib8UAQuQHwoM0mD4sFhMHRGLv2Qocya+ClUGEXEwhCOgTHtjxjh5KITSMF9EoO/0cm11sMV6leViR7p8PNja7CJtdRI3J2qXFRjVKRYsuYU1bVpqOZQlQK6FVKzx+7RW7KHpMaCUi12EAIfIjoTo1pg2JxvikCOzLqcChvCqYG2YgIqLuUyoEBGtVCNZ27r9XURRhsYlth5VmXcIag40IwGyzw1xvR1V9hy8DABAgzRrWtEuYrrWxLE3GumiU7hvPcqq4xqXd9ojIcwiiyJ7hnsJgMECv16OqqgqhoaFyl0N+wGixYX9OJQ7kVsLYhe4iRCQfURRhstrbaGmxo85ibTHWxXSBXzQoBcHRJaxpa0prg+8bg43qAqY6PlVc0+7EBbOHRWJQLx0gihBw/rJF+l1sfbtjmwhHhBIb7zfZ3nAZdH6bCOlQTY8pQmi2X9PXcXq+2LI+QTz/nNa2n494Tfdtp76G7U71NdTdYX2O5zd/z52sz7Fv4/aG44vOx3d+zy23N629RS2t1ef4c2lZtyIkBhNv/Bvchddr3ccWECI/plMrMWlAJEYnhuFwXhX25VSg1sQgQuTJBEFoaMlQorM93Gz2860sLQbbO1pcrI7WF6PFDotdhE0UUWuydenfBa3CjiCVHcFKO4JVNgQpbQhVWhCstCJEZUGI0oJQhQmhSjNCFSYECyZ8kDUGgAZAa60tIn7LzMd80w5w2Au1RgBb8r0NAwgRQatSYmy/CIxICMPRAgP2nC3v0jSlRNQ9gmiDQrQ5fipE6/n7sEMhWps81nzfxv2aPU+0QRDtjm2OfRv2EwQ7FGobFCppe9Nv6AHAZFeg2qZ2vtnVqLZpYGi+veFmgwImuwImswLlrb/VVohoPXg4Ph2UWXVYW9YfA3UG6AQbApU26AQrAhQ2BCis0ClsDCdEXsRrAki/fv1w2223YfHixejbt6/c5RD5JLVSgZEJYUjrrcexQimIVNR1bupRIm8lNLlAb3rB7nzBb4UCjY83PmZtJQA0f56t4fh2p4t/5xBhR/OLf0+gVdihVZgQpTZ1an9RBOrtShhsmmaBRbqdDy3nH6+xq9F++DhvY0Vi+/UK58NI02ASoJCCik5hQ4DQ+HtjeGl9P5XgeX8eRL7EawLIAw88gFWrVuGJJ57AtGnTcPvtt+O6666DVquVuzQin6NUCEjtrUdKXChOFtcg/Ww5Sqs7dxFC1Gmi2HBB3vxbfWuTMND04r+db/+b7Nf0uULzb/9bBAXPvPj3RoIABCptCFTWIxadGxlvEwXsq4nEi0VpHe47QFsFlSCizq6C0a5EvV2JersKNkhjTkyiEiabEuiBXqRqwXY+tCisCBBszULK+QCjU1gR6LStIdA0BCK1gucXUXNeNwj94MGDePfdd7FmzRpYrVbcfPPNuO222zB69Gi5S+s2DmoiTyWKIs6U1iI9qxxFVUa5y6GeJtqhdOriY23Wbed8i8D5/axOj7W+XysX/6INCpwPGER2EfjL2Ukot2rR1hiQSJUJ/+3X+hgQi11AvahCvV3ZEEwaf1c5QkrLxxp+F523W8TOT7ncWUrYm7W0tGx1cQo1Qtv7aQQ7OCtxS4qQaEy48e9uez1er3Wf1wWQRhaLBcuXL8dDDz0Ei8WC1NRU3Hfffbj11lu9djVZntDkDYqrjSirMaOi1ozyOulnRZ2FCxz2BFF0CgDOF/ytXfQ7X/xf2H5Wp9mDiOSQXhOFlwpTG+41/T9cOjf/GncE44NLXV6HVRQcrStNA4zRrkRd4zbx/Lamjzf/3ST2fCcTRUOY0TXcAh2tLVbnFpsmgaZFN7SG37WCb4ybsYtAptAPkWOuQ3SIDuOTIly+SCev17rP6wKIxWLBF198gZUrV2LLli2YOHEibr/9dhQUFOC1117DtGnT8NFHH8ld5gXhCU3eym4XYTBaUF5rRkWdGeW1FkdAqTd756xagmiFwt5w4Q6b8++NjzV0C1Laree7EtmtToOBW289aL2VgS0C5M/Sa6LwXkkyyq06x7ZIlRGLep10S/joaXYRzq0uYmOgaRpU2mmdsSthbBJ2xE6OleksAaIUZITWA0rzbmaOFhnhfOtM0+fIEWZaO2fi9Do8fm0KrkqNc9nr8nqt+7wmgOzbtw8rV67EmjVroFQqsXDhQtxxxx0YMmSIY5/du3fj4osvRn19J1dl8jA8ockX1ZttjpaS8wHFDEO9FfZO/PPT2qxAzt17WnYBauz733rrgXM4aD0YcFwAkRzsInC8PgwVNg3ClWYMCaj0iW/pu8suAmaxsRWmgwAjKlFva+xedj70NP3djq6v1dIRrdBBaFE27V52PrwEttI1rTOTALTVatb424pbRrsshPB6rfu8ZhD6uHHjcOWVV2LFihWYO3cu1Gp1i31SUlKwYMECGaoj8iMWI2AzAXYbYLMAdmvrN5v0M8BuRW+7Bb3tVgA2QGsB1FbYgi2oM5lQV29Ebb0J9SYT6o0mGE0miLbzrQMMAkT+QyEAKYGVcpfhcRQCoGsYCN9doghYRMX5LmVNA02nupc5t+Q0nwSgqqcnAWile5lWsOInQ3zD3s4JtXFS56UbM3BlSqzLu2PRhfGaFpDs7GwkJrY/BZ+3Y6ImjyaKQO4u4MzPgIu7CpmsDQukOS2YduGrORMRkWs0TgLQVlCRxs9I25r+3trEAT09CcCaOydi0oDIHj0mwOu1nuA1LSDFxcUoKirChAkTnLbv2rULSqUSY8eOlakyIj9gqQeOfw2UnnTLy2lVSmhVSugDnFs6rXa7I5gYHas3S+GEY+CJiNxPrRChhgWhyu6vGdXeJACOGc1EJU4bQ7CvtleHxyuu5qyNnsprAsif//xn/P3vf28RQPLz8/Hss89i165dMlVG5OMMhcDRLwBjldyVQKVQIFirQLDW+Z8uURRhstodgaTeLIWSeosNFhuTCRGRN1AJIoKVVgQrrQDaXnsqoy6sUwEkOkTX4T4kD68JIBkZGa2u9TFq1ChkZGTIUBGRH8jbC5zeKo3p8GCCIECnVkKnViK82WMWm93RSlLfpNXEZLFzdAkRkRcaElCJCJWxzbVjBACxemlKXvJMXhNAtFotzp07h/79+zttLywshErlNW+DyDtYzUDmJqD4mNyVdJtaqYBaqUCozrk7l10UHa0k51tMpLDCNU2IiDyXQgD+0OtkwyxYjcPOJY2/PX5tCgegezCvGYS+YMECFBUV4csvv4RerwcAVFZWYu7cuYiOjsbHH38sc4Xdx0FN5BFqSqQuV3VlclciGw6CJyLyfFwHxHt5TQDJz8/HxRdfjLKyMowaNQoAcODAAcTExGDLli1ISEiQucLu4wlNsis8BJz8VppCl1rgIHgiIs/CldC9k9f0XerduzcOHTqE1atX4+DBgwgICMCtt96Km266qdU1QYioC2xW4OR3QOFBuSvxaBwET0TkWRQCMCykDhNG9pa7FOoCrwkgABAUFIS77rpL7jKIfEtdudTlqqZY7kq8FgfBExERdZ5XBRBAmg0rJycHZrPZafvs2bNlqojIixUfBzK/lgadk0twEDwREZEzrwkgZ86cwXXXXYfDhw9DEAQ0Dl0RBKmfn81mk7M8Iu9it0nT6+btkbsSv6UQBARqVAjUqIAg58c4CJ6IiHyZ1wSQ++67D0lJSfj+++/Rv39/pKeno6ysDA888ACef/55ucsj8h7GKuDoesBQIHcl1Ia2VoK32cXzA985CJ6IiLyU1wSQHTt2YOvWrejVqxcUCgUUCgUuuugiLFu2DPfeey/2798vd4lEnq/sNHBsI2Cpl7sSugBKhYBgrYqD4ImIyKt5TQCx2WwIDg4GAERFRaGgoACDBw9GYmIiMjMzZa6OyMPZ7cDZX4CcnYB3zLxNXcBB8ERE5E28JoCkpqbi0KFD6N+/PyZMmIDnnnsOGo0Gb731VovV0YmoCVMNkPElUJkjdyUkAw6CJyIiT6OQu4DO+uc//wm7XRqA+dRTTyE7OxtTp07Fpk2b8N///rfLx1u+fDmSkpKg0+kwZswY/Prrr+3uv3r1aowYMQKBgYGIi4vDrbfeirKy8ytFr1q1CoIgtLgZjcYu10bUYyqygT3vMnxQC42D4CODtOgTHoiB0SFI663H+H4RGN03DClxoUiKCkJsqA76ADW0Kq/574KIiDyc17SAzJgxw/F7//79kZGRgfLycoSHhztmwuqsdevWYcmSJVi+fDmmTJmCN998E1dffTUyMjLQt2/fFvtv27YNixYtwksvvYRrr70W+fn5uOeee3DHHXfgiy++cOwXGhraojuYTqfr4jsl6gGiCOTsALJ+BUTOnERdw0HwnkcAIAhSd7vG//EEARAgNPw8//j5/QXHdnRwX2g4oNDsuK2/jtBkeyvHbdy3+XGbP7fxuA0FNz2WXRRhE0XY7CLsdhFWuwi7KJ2DjluTx5veb7zxlCTyXF4RQKxWK3Q6HQ4cOIDU1FTH9oiIiAs63osvvojbb78dd9xxBwDg5ZdfxrfffosVK1Zg2bJlLfbfuXMn+vXrh3vvvRcAkJSUhLvvvhvPPfec036CICA2NvaCaiLqMZZ6aaB52Wm5KyEf445B8G1fEDe/8O2BC+TGbc0ukFu7IG5+v/WL+PZruqDjNnk/1DV2sWVYsdlF5+32zgUdOwON5xLtCKnNBg5/CgTHAImTAYVS7qqoA14RQFQqFRITE3tkrQ+z2Yy9e/fi4Ycfdto+ffp0bN++vdXnTJ48Gf/4xz+wadMmXH311SguLsann36KWbNmOe1XU1PjqHPkyJF48sknMWrUqDZrMZlMMJlMjvsGg6Eb74wIQFU+kLEeMPJcIvfpaBC81S628Q2980U6Gu4T9QSFIEChFKDugWtRESLsdrRoZWkz5DRvkWnRWtP9mgiIqMtCv8od0NpqgewPpY2h8cBVzwIpXKDak3lFAAGkMSCPPPIIPvzwwwtu+QCA0tJS2Gw2xMTEOG2PiYlBUVFRq8+ZPHkyVq9ejfnz58NoNMJqtWL27Nl49dVXHfsMGTIEq1atQlpaGgwGA1555RVMmTIFBw8eRHJycqvHXbZsGZYuXXrB74XISd4eaXFBOxflJM8hDYKXuwqi7hEgQKkAlBCAngg0YvNWmba7l1nFtruZNQYgf+wCGVGXhUFl37d8wFAIfLwIuPF9hhAPJoiid8zJOWrUKJw6dQoWiwWJiYkICnJeOnjfvn2dOk5BQQF69+6N7du3Y9KkSY7tTz/9ND744AMcP368xXMyMjJwxRVX4K9//StmzJiBwsJCPPjggxg3bhz+97//tfo6drsdo0ePxsUXX9zmIPnWWkASEhJQVVWF0NDQTr0fIlhNwPGvgRJOR01E5I8cLTFiGy0wHY2h8ZbxM6IIATYobWaMOPc51Pb6NtpMBaklZMlhl3THMhgM0Ov1vF7rBq9pAZk7d26PHCcqKgpKpbJFa0dxcXGLVpFGy5Ytw5QpU/Dggw8CAIYPH46goCBMnToVTz31FOLi4lo8R6FQYNy4cTh58mSbtWi1Wmi12m68G/J71eekLld15XJXQkREMnF0N+uh49k6aHWxtjX432YFbFaINrP0026BYLNAEK1QilYoRCsUdiuUokX6XbRJv9ulxxz7NP5ut0IhWhr2k7YLnYpHImDIB7K3A0lTe+hToZ7kNQHk8ccf75HjaDQajBkzBlu2bMF1113n2L5lyxbMmTOn1efU1dVBpXL+qJRKKVG31YAkiiIOHDiAtLS0HqmbqIWCA8DJLYDdKnclRETk6US79P+FzSLd7E1/Wp3uK23STe3YZnV+jtPzmzzmabMu1pyTuwJqg9cEkJ50//33Y+HChRg7diwmTZqEt956Czk5ObjnnnsAAI888gjy8/Px/vvvAwCuvfZa3HnnnVixYoWjC9aSJUswfvx4xMfHAwCWLl2KiRMnIjk5GQaDAf/9739x4MABvP7667K9T/JRNgtw4lug6LDclRAR9SzRDlTlAuZaQBME6BMAwQ/WoBFF6ULebgVs5g6CgrlFYDi/r7WV51jOH9ttBECpBhRq6adSDShUztucfqqa7dvGc5RqiIIKdkMBlEc+7riM4NZ7tpD8vCaAKBSKdqci7MoMWfPnz0dZWRmeeOIJFBYWIjU1FZs2bUJiYiIAoLCwEDk55xduW7x4Maqrq/Haa6/hgQceQFhYGC677DI8++yzjn0qKytx1113oaioCHq9HqNGjcIvv/yC8ePHX8C7JWpDbRlw9HOgtlTuSoiIelZJJnDqe8BcfX6bJgQYeAXQa7B8dQHS5B4dffvfagtBK0GhcXvToGG3uPf9NL/od9zXSD8bt7UIEJpWQ0GL5wvK83NK9zABgDKin3RuND1Xmu8VGi9NyUseyWsGoX/55ZdO9y0WC/bv34/33nsPS5cuxe233y5TZT2Hg5qoXecygMxN0n9WRES+pCQTyPii7cdTrms7hIj2TnQTai8MtBcmrO7vWiQom13gNw8KrbQadCUoKFQuCwdu1eY50/DeXDgLFq/Xus9rAkhbPvroI6xbt65FQPFGPKGpVXab9K1gfudmeiMi8kh2m/Stf+PN2vjTCJz8VvrZFkEJBMcCYmPrQZOgILpz6nFBurhvtfWg+YV+J7oftfZ8f+hy1lNaazUL7Q1c9W+XTsHL67Xu85ouWG2ZMGEC7rzzTrnLIHKN+krg6BdAdetr1BARuUzzwNA0NLR2a+uxxu3dCQqiDajO73i/5mMHWm01aC1AdLL1QFD4RuuBr+g1GIhKlgJI77FcCd2LeHUAqa+vx6uvvoo+ffrIXQpRzys9CRz/CrC0860gEVEj0d5wsW9yvvi3dyIctLbdVS0LghJQaRpaEjRS0KnvxFTivccCEf3bblnwla5F1DWCAogcCKTdIHcl1AVeE0DCw8OdBqGLoojq6moEBgbiww8/lLEyoh5mtwNZPwG56dLMKETkmxyBofnN1LDd4rzNERgsztvcHRia3trbrmj+uLYhLDT7droyGzi4puM6opKBsETXvEciciuvCSAvvfSSUwBRKBTo1asXJkyYgPDwcBkrI+pBpmog40ugMlfuSoi6z9emVBXtnetq1NntrpoWVVB2HA5a297WY67uzqJP6GBGIwDaEGk/IvIJXhNAFi9eLHcJRK5VngUc2wCY6+SuhKj7PGFK1cbA0FOhwWWBQdEkAGibXPyrnVsPVM23a1sPDd7W/11QSOdFe7NgDbjCu8MrETnxmgCycuVKBAcHY968eU7bP/nkE9TV1eEPf/iDTJURdZMoAtm/AWe3scsV+Ya2psc0V0vb25pS1REYLE1CgMl5m80MWJt0PWreHcnaZLur1lZoGhg60xWpeRckx3atdwYGV+g1WDovmodWbYgUPuReB4SIepTXBJB///vfeOONN1psj46Oxl133cUAQt7JXAcc2wiUn5G7EqLuE8WGKVW/a3+/YxuAvLiGaVSbhAZ3BoYL6aLUuF3hNf91epfGGY18qdseEbXKa/4Vzc7ORlJSUovtiYmJTquWE3mNqjzg6Hpp3AeRJ7PbAEstYKoFzDXS7+bGW43zz850UxJtgCGvnR0E5xYCpwCgbmN7O4HBhasyUw8TFBxoTuQHvCaAREdH49ChQ+jXr5/T9oMHDyIyMlKeooguVG46cPpH966uS9RUY2tFayGi+e/W+p5//cYpVVsbz8DAQETk07wmgCxYsAD33nsvQkJCcPHFFwMAfv75Z9x3331YsGCBzNURdZLFKK3tUXpS7krIV9mtbQcJp99ruzZtq6CQusRoggB1EKAJbrgffH67JhioKweOfNzx8TilKhGR3/KaAPLUU08hOzsbl19+OVQqqWy73Y5FixbhmWeekbk6ok6oLpJWNa+vlLsS8jaiCFjq2u72ZK5t6BZVIw3Q7gqVrlmIaCNcqAI61yqhC+WUqkRE1C6vCSAajQbr1q3DU089hQMHDiAgIABpaWlITOQ3aOQF8vcBp35w3TSe5J1s5tZbJloLGOjCDGmCsu0g0Txs9PSAak6pSkREHfCaANIoOTkZycnJcpdB1DlWM3BiM3DuqNyVkLuIdml2s+YhonHgtqnJIG6buWvHVge2ESSCpW5R2oZtSq28Yyg4pSoREbXDawLIDTfcgLFjx+Lhhx922v6f//wH6enp+OSTT2SqjKgNtaVSl6vaUrkroe4SRWmdiY5aKcw1UleprlCoO2ilaPhdHehd60VwSlUiImqD1wSQn3/+GY8//niL7VdddRWef/55GSoiakfREanlw+aidQ2oZ9htzcJDsxaKrk4v6yAAmkDnIKEOBrRNWiscYyu0Lnt7suOUqkRE1AqvCSA1NTXQaDQttqvVahgMBhkqImqFzQqc2gIUHJC7Ev/lmF62EzNBdXV6WaW27bEUTcdbqAP4TT8REVEbvCaApKamYt26dXjsscectq9duxYpKSkyVUXURH2F1OWq+pzclbiGaJe3O43N0qRloq1B2w2/d2V9lebTy2qDm00z2+R3pdp174+IiMhPeE0AefTRR/G73/0Op0+fxmWXXQYA+OGHH/DRRx/h008/lbk68nslmcDxr7s+Baq3KMlsOaBYEyLNdtSdAcWdmV628XebK6aXDZb246J3REREbuM1AWT27NlYv349nnnmGXz66acICAjAiBEjsHXrVoSGhspdHvkruw048yOQu1vuSlynJLP1KVXN1dL2lOtahpBWp5dt4/cemV62edBwwfSyRERE1CO86n/oWbNmYdasWQCAyspKrF69GkuWLMHBgwdhs3VhRV+inmA0ABnrgap8uStxHdEutXy0J/MraZphS10PTC/bQYuF3NPLEhERUbd5VQABgK1bt+Ldd9/F559/jsTERPzud7/D//73P7nLIn9Tdho4thGwdHEQs7epym1/RWtAGptRdqLldl+dXpaIiIi6xSsCSF5eHlatWoV3330XtbW1uPHGG2GxWPDZZ59xADq5lygCZ38FsrdLv/s6c23n9otJBSIHnp9eVhsMKFvOWkdERETk8fNEzpw5EykpKcjIyMCrr76KgoICvPrqq3KXRf7IXAscXAuc/c0/wgcghYnOiE0Deg0BwhKAwAiGDyIiImqTx7eAfPfdd7j33nvxxz/+EcnJyXKXQ/6qMgfI+FJapM6fGDuxxo42RJqSl4iIiKgTPL4F5Ndff0V1dTXGjh2LCRMm4LXXXkNJSYncZZG/EEUgewdwYI1/hQ9RBM5uAzK/7njfAVdw0T0iIiLqNI+/apg0aRLefvttFBYW4u6778batWvRu3dv2O12bNmyBdXVHQyQJbpQlnrgyGfAmZ+6trCdt7PbpOCRvU26nzABSJkrrfvRlDak9Sl4iYiIiNohiKL3dWbPzMzE//73P3zwwQeorKzElVdeiQ0bNshdVrcZDAbo9XpUVVVxbRO5GQqlVc2NVXJX4l4WI3D0c6AqB4AAJM8A4kdKj8m9EjoREZFCCagDpEVk1YGAWgcERQNJU91WAq/Xus8rA0gjm82GjRs34t1332UAoZ6Ttxc4/YPUEuBP6iuBwx8D9eXSIPKUuUBEf7mrIiIiX6XSSCGiaZhQBzYEjADpZ+O2xn1U8k9ywuu17vPqAOJreELLzGoGMjcBxcfkrsT9DPlSdzNLndS1KnUeEBwtd1VEROQNBEVDWAho2TrRWsBQ6aT9vHQNKF6vdZ/Hz4JF5BY1JVKXq7oyuStxv5LjwPGvALsVCI4BUm+QQggREfkfpbpz4cFpm1buqsnLMIAQFR4CTn4L2KxyV+JeogjkpQNnfpTuRwwAUuZwDQ8iIl8gKKSAoAroWuuEl7ZKkHdhACH/ZbMAJ7+TAoi/Ee0N7/2AdD9+NDCQ0+kSEXkkpaqd1og2WidUWkAQ5K6cqFUMIOSf6sql2Z5q/HBNGatJWlSx4ox0f8DlQO+x/I+KiMjVBKFJSGhnoHXz+0perpFv4RlN/qf4uLTOhdUsdyXuZzIAhz8BaksAhQoYOhuIGiR3VURE3keh6lx4aN46wS97iBhAyI/YbcDprUDeHrkrkUd1EXDkU8BcA6iDpMHmoXFyV0VEJC9BkLortRgr0UHrhFItd+VEXosBhPyDsQo4uh4wFMhdiTzKTgMZ6wG7BQiMAtJuAHRhcldFRNSzWlukrqPWCVUAoOD4NyJ3YgAh31d2Gji2QVrl2x/l7wNObQEgAmGJwLDrpP98iYg8WeMidU6tER20TnjAInVE1DEGEPJddjtw9hcgZ6c05ay/EUXgzFYgb7d0PzYNSL6KUywSkfs4dW/SNfmpOz8moq2f/LeKyGcxgJBvMtVIMz1V5shdiTxsFuD4RqD0hHS/38VA30kc/EhEF8ZpTYn2frYSJvjvDhE1wwBCvqciWwof5lq5K5GHuVYabF5dCAhKYMgsIDpF7qqIyBMoVG0HhXZ/cqVrIuo5DCDkO0QRyN4OnN0mLbTnj2pLgSOfSIPuVTpg2O+AsAS5qyKinqbSdKI1opXuTpy5iYg8AAMI+QZzHXD8K2nAub+qOAsc/QKwmYCAcCB1HhAYIXdVRNSWNsdHdOInZ20iIi/GAELerypfmmLWaJC7EvkUHQJObJZafkL7AKnXSzPCEJHrKZRNWhk4PoKIqCMMIOTdcncDZ36UFhn0R6IInP0VyNku3e81VBrzoeBfbaIuU6ourDWCU78SEXUJr1LIO1lNwPGvgZJMuSuRj90KZG4CijOk+30nSbNd8RtV8nddGh/R5KeS/yUSEbkD/7Ul71N9TupyVVcudyXysdQDRz8DqvIACMCgq4C4EXJXRdRzBIU0PqKtGZk4PoKIyGsxgJB3KTgAnNwiffvvr+orgMOfAPXlgFILpMwFIpLkroqodYLQZDXrpkGio25NWrbmERH5KAYQ8g42izTIuuiI3JXIqypPavmw1APaUCBtHhDUS+6qiKRuTwERQGCk8y0gnF2biIjICf9XIM9XWwYc/Vxa48KfFR+TphoWbUBwLJB6A6ANlrsq8ieCAGhDmoSLCGmq58BIQBcqd3VEROQlGEDIs53LkAZa2yxyVyIfUQRydwJZP0v3IwcCQ2cDSs68Qy6iVEktFy1aMyI44xMREXUbAwh5JrsNOPU9kL9P7krkZbcBJ78Dig5K93uPBQZcJg3QJeouTVCzkNHYmqHn+AsiInIZBhDyPPUVwNH1QHWR3JXIy2qUZvuqOAtAAAZeLgUQoq5QKKXWjNZaNNQ6uasjIiI/xABCnqX0JHBso7TOhz8zVgFHPgVqSwCFWupyFZUsd1XkydS6lgEjMBLQhXFaWiIi8igMIOQZ7HYg6ycgN10a8+DPqouAI58A5lqpi0zqPCAkVu6qyBMICql7lKO7VJNZpzRBcldHRETUKQwgJD9TNZDxJVCZK3cl8is9CRzbANgt0vS6qTdIF5zkXzilLRER+TD+T0byKs+SLrjNdXJXIr/8PcCpHwCIQHg/aYFBFfvo+6zmU9o2bc3QhshdHRERkcswgJA8RBHI/g04u41drkQ7cHqrFEAAIHYEkDxdGjxM3k+patKa0axVQ6mWuzoiIiK3YwAh9zPXSgPNy7PkrkR+NrPUAlR2SrqfdAmQMJFToHojTmlLRETUKQwg5F6VudJ4D1O13JXIz1QjzXRVUwQISmDINUD0ULmrovY0TmnbtCWjsXWDU9oSERF1CgMIuU/OLuDMT1KXI39XWwIc/gQwGQBVAJD6O0DfR+6qqJE6oGV3KU5pS0RE1CMYQMj1LEbg+FfSDE8kdT3LWA/YTNK352nzpG/Vyb1aTGnbJGhoAuWujoiIyGcxgJBrVRcBR78A6ivlrsQzFB4ETn4rtQLp+wDDfid9206uo9K07C7VGDo40J+IiMjtGEDIdfL3SdPK2q1yVyI/UQSyfgFyd0j3o1OAwTMBBf8K9ghOaUtEROQ1ePVDPc9qBk5sBs4dlbsSz2C3Ase/BkqOSff7Tgb6TeXMSBfCaUrbZmGDU9oSERF5BQYQ6lm1pVKXq9pSuSvxDJY64MjngCFPGnMw6CogdrjcVXk+bXDL7lKc0paIiMgnMIBQzyk6IrV82CxyV+IZ6sqBI58A9RWAUgsMu05a4ZwkrU1p23hTaeWujoiIiFyEAYS6z2YFTm0BCg7IXYnnqMwFjn4GWI3St/ap84CgKLmrkoc6oPWxGZzSloiIyC8xgFD31JVLU8pWn5O7Es9x7iiQuQkQbUBIHJB6g7RKti/jlLZERETUSX779ePy5cuRlJQEnU6HMWPG4Ndff213/9WrV2PEiBEIDAxEXFwcbr31VpSVlTnt89lnnyElJQVarRYpKSn44osvXPkW5FeSCexdxfDRSBSB7O3A8Y1S+IgaBIy42ffCR3AvIDYV6H8JkHo9MO4O4OK/ARPvAYbPAwZeDsSPBMISGD6IiIioBb8MIOvWrcOSJUvwj3/8A/v378fUqVNx9dVXIycnp9X9t23bhkWLFuH222/H0aNH8cknn2D37t244447HPvs2LED8+fPx8KFC3Hw4EEsXLgQN954I3bt2uWut+U+dhtw6ntpcLXVJHc1nsFuA05sAs7+It3vMw5Imet7MzPFjwLG3g4MvRZInAz0GiwFEq6nQURERJ0kiKIoyl2Eu02YMAGjR4/GihUrHNuGDh2KuXPnYtmyZS32f/7557FixQqcPn3ase3VV1/Fc889h9zcXADA/PnzYTAY8M033zj2ueqqqxAeHo41a9Z0qi6DwQC9Xo+qqiqEhoZe6NtzLaNB6nJVlS93JZ7DapRm/qrMBiAAA68Eeo+Wu6qe12cckHyF3FUQERHJyiuu1zyc37WAmM1m7N27F9OnT3faPn36dGzfvr3V50yePBl5eXnYtGkTRFHEuXPn8Omnn2LWrFmOfXbs2NHimDNmzGjzmABgMplgMBicbh6t7DSw512Gj6aMlcD+D6XwoVADqb/zzfCROInhg4iIiHqE3wWQ0tJS2Gw2xMTEOG2PiYlBUVFRq8+ZPHkyVq9ejfnz50Oj0SA2NhZhYWF49dVXHfsUFRV16ZgAsGzZMuj1esctISGhG+/MhUQROPMzcPgTwFIvdzWew1AI7PsAqCsFNMHAyN8DkQPlrqrnJU0F+l8qdxVERETkI/wugDQSmi1mJopii22NMjIycO+99+Kxxx7D3r17sXnzZmRlZeGee+654GMCwCOPPIKqqirHrbE7l0cx1QAH10iDq/2vt17bSk8AB1cDllogqBcwehEQEit3VT1vwDSg30VyV0FEREQ+xO+m4Y2KioJSqWzRMlFcXNyiBaPRsmXLMGXKFDz44IMAgOHDhyMoKAhTp07FU089hbi4OMTGxnbpmACg1Wqh1XrwgmuVOUDGl1IIIYkoAvm7gdNbpfvh/YGUOb63cJ7QMJalzxi5KyEiIiIf43ctIBqNBmPGjMGWLVuctm/ZsgWTJ09u9Tl1dXVQNFswTamUZv1pHMM/adKkFsf87rvv2jymRxNFIHsHcGANw0dTol1acLExfMSNAtJu8M3wMegqhg8iIiJyCb9rAQGA+++/HwsXLsTYsWMxadIkvPXWW8jJyXF0qXrkkUeQn5+P999/HwBw7bXX4s4778SKFSswY8YMFBYWYsmSJRg/fjzi4+MBAPfddx8uvvhiPPvss5gzZw6+/PJLfP/999i2bZts7/OCWOqBY18BZafkrsSz2MxSa1B5w0xo/acBfcZLF+u+RFAAQ2ZJ63wQERERuYBfBpD58+ejrKwMTzzxBAoLC5GamopNmzYhMTERAFBYWOi0JsjixYtRXV2N1157DQ888ADCwsJw2WWX4dlnn3XsM3nyZKxduxb//Oc/8eijj2LAgAFYt24dJkyY4Pb3d8EMBcDR9YCxSu5KPIupGjjyKVBzDlCogCHXAL2GyF1Vz1MogaGzgWgffG9ERETkMfxyHRBPJeu80nl7gdM/SAvq0Xk1xcCRT6QQog6UptkN7S13VT1PoQKGzQWikuWuhIiIyKNxHZDu88sWEGrCagIyNwHFx+WuxPOUn5EWXbSZgcBIIHUeEBAmd1U9T6mSglVEf7krISIiIj/AAOLvjnwGVGTLXYXnKTgAnPwWgAjo+wLDrgfUOrmr6nlKNZA2DwhPlLsSIiIi8hMMIP7OUid3BZ5FFIGsn4DcXdL9mGHAoJnS+Ahfo9ICw28E9H3kroSIiIj8CAMIUSObBTj+FVCaKd1PvAhInOJ7M10BUmvO8AVAaJzclRAREZGfYQAhAgBznTTTVXWBNBXt4JlAjI9ORasJBEbcBARHy10JERER+SEGEKK6MuDwJ4CxUuqWNOx6IMxHx0Rog4ERNwNBkXJXQkRERH6KAYT8W2UOcPRzwGoEdHog7UZpxitfpAuVWj4CI+SuhIiIiPwYAwj5r3NHpCmIRTsQEi9NRasJkrsq1wgIB0Ys8M1phImIiMirMICQ/xFFIPs3IHubdD9qsLS6uVItb12uEhgJjLwJ0IbIXQkRERERAwj5GbsNOPGN1PoBAAkTgKRLfXOmKwAI7iV1u/LVlh0iIiLyOgwg5D8sRmm8R1UOAAFIng7Ej5K7KtcJiZGm2tUEyl0JERERkQMDCPmH+krgyCfSjFdKDZAyF4joL3dVrqPvLQ2o98XV24mIiMirMYCQ7zMUSGt8WOqkcRCp83x7DYywvkDaPEClkbsSIiIiohYYQMi3lRyXVje3W4HgGCD1Bt8ejB2RJM3m5asD6omIiMjrMYCQbxJFIC8dOPOjdD9iAJAyR+p+5asiBwLDrgOU/GtNREREnotXKuR7RDtwcgtQuF+6Hz8aGHgFICjkrcuVeg2WApZCKXclRERERO1iACHfYjUBx74Eys9I9wdcBvQe57vT7AJAzDBpHROFDwcsIiIi8hkMIOQ7TAbg8KdAbTGgUAFDr5UWGfRlcSOAwVf7dsAiIiIin8IAQr6h5hxw+BPAXAOoA6XB5qHxclflWr3HAMlXMnwQERGRV2EAIe9XdhrIWA/YLUBgFJB2A6ALk7sq10oYDwy8XO4qiIiIiLqMAYS8W/4+4NQWACIQlijNAqXy8cX3EicD/S+RuwoiIiKiC8IAQt5JFKUpdvPSpfsxacCgq3x/Fqj+l0gBhIiIiMhLMYCQ97FZgOMbgdIT0v1+FwN9J/n+WIiBVwAJ4+SugoiIiKhbGEDIu5hrgSOfAtWFgKAEBs+UpqH1ZYIAJE8Heo+WuxIiIiKibmMAIe9RWwoc+QQwVknjPIb9DghLkLsq1xIEKWTFDZe7EiIiIqIewQBC3qHiLHD0C8Bmkma4SrsRCIyQuyrXEhTSWiYxKXJXQkRERNRjGEDI8xUdBk58A4h2ILQ3kPo7aa0PX6ZQAilzgF4+vpAiERER+R0GEPJcogic/RXI2S7d7zUUGDJLWuXclylUQOr1QOQAuSshIiIi6nE+fiVHXstuBTK/AYqPSvcTJgFJF/v+TFdKlbSKe0SS3JUQERERuQQDCHkeSz1w9HOgKheAIK3vETdC7qpcT6WRxrb4+sB6IiIi8msMIORZ6iuAw58A9eWAUgukzPWP1gCVFhg+H9D3lrsSIiIiIpdiACHPUZUHHP1MagHRhgJp84CgXnJX5XrqAGDEAiAkVu5KiIiIiFyOAYQ8Q/Ex4PhXgGgDgmOlcRDaYLmrcj1NEDDiJiDYD4IWERERERhASG6iCOTuArJ+ku5HDgSGzgaUGlnLcgttCDDyZt9fz4SIiIioCQYQko/dBpz6Dig8KN3vPQYYcLm0AJ+v0+mBkTcBAeFyV0JERETkVgwgJA+rEcj4EqjIAiBIwaPPWLmrco/ACKnblS5U7kqIiIiI3I4BhNzPWAUc+RSoLQEUaqnLVVSy3FW5R1CUFD78YXwLERERUSsYQMi9qouk8GGukQZgp87zn9mfgqOl2a40QXJXQkRERCQbBhByn9KTwLENgN0iTa+beoM0FsIfhMZJ63yoA+SuhIiIiEhWDCDkHvl7gFM/ABCB8H7SAoMqncxFuYm+DzD8RmmxQSIiIiI/xwBCriXagdNbpQACALEjgOTpgEIpb13uEp4otfSo/GBaYSIiIqJOYAAh17GZgWMbgbKT0v2kS4CEiYAgyFuXu0QOAIZdDyj514yIiIioEa+MyDXMNdJg8+oiQFACQ64BoofKXZX7RCUDw67zn5YeIiIiok5iAKGeV1sCHP4EMBkAVQCQ+jtpHIS/iB4qTS2s8IMFFYmIiIi6iAGEelbFWeDoF4DNJK3ynXajf632HZsKDJ7F8EFERETUBgYQ6jmFB4GT30oDz/V9gGG/869pZ+NHAYNm+M8YFyIiIqILwABC3SeKQNYvQO4O6X50CjB4JqDwo9Orzzgg+Qq5qyAiIiLyeH50hUguYbcCx78GSo5J9/tOBvpN9a9WgL4TgQHT5K6CiIiIyCswgNCFs9QBRz4HDHmAoAAGXQXEDpe7KvdKmgr0u0juKoiIiIi8BgMIXZi6cuDIJ0B9BaDUSlPOhveTuyr3GjBNav0gIiIiok5jAKGuq8oFjnwGWI2ANlSa6SooSu6q3EcQgIFXAH3Gyl0JERERkddhAKGuKc6QxnyINiAkDki9AdAEyV2V+wiCNNNV/Ci5KyEiIiLySgwg1DmiCOTsAM7+It2PGgQMuRZQquWty50EBTBklrTWBxERERFdEAYQ6pjdJq3vUXRIut9nHNB/mnRB7i8USmDotdIq50RERER0wRhAqH1Wo7SyeWU2AAEYeCXQe7TcVbmXQgUMmwtEJctdCREREZHXYwChthmrgMOfAHWlgEINpMwBIgfKXZV7KVXAsOuByAFyV0JERETkExhAqHWGQuDIp4ClFtAES4PNQ2Llrsq9lGogbR4Qnih3JUREREQ+gwGEWio9ARzbIK1yHtRLugjXhspdlXupNMDw+YC+j9yVEBEREfkUBhA6TxSB/D3A6R+k++H9pW5XKq28dbmbWgcMXwCExsldCREREZHPYQDxV3YbkL0dyN8HiHYgtDdweitQsE96PG4kkDzdv2a6AgBNIDDiJiA4Wu5KiIiIiHwSA4g/ytgAbH4IMBSc3yYopcUFAWmK3T7jpUX3/Ik2WAof/rSqOxEREZGbMYD4m4wNwMeLAIjO2xvDR5/xQMIEt5clO12oFD4CI+SuhIiIiMin+Vn/Gj9nt0ktH83DR1Mlx6QuWf4kIBwY+XuGDyIiIiI3YADxJ9nbnbtdtcZUDVTluqceTxAYCYz6PRAQJnclRERERH6BXbD8Sc25zu1nrnVtHZ4iKErqdqUNlrsSIiIiIr/BAOJPgmM6t58myLV1eIKQGGmqXU2g3JUQERER+RV2wfIniZOB0HgA7cxupQ0B9AluK0kWofHAiJsZPoiIiIhkwADiTxRK4KpnG+60EUIGXOHba3+EJUjdrtQ6uSshIiIi8ks+fKVJrUqZDdz4fstVvrUhQMp1QK/B8tTlDhFJwPD5gEojdyVEREREfstvA8jy5cuRlJQEnU6HMWPG4Ndff21z38WLF0MQhBa3YcOGOfZZtWpVq/sYjUZ3vJ2uSZkNLDkC/OErafrZETcBE/7o2+EjciCQegOgVMtdCREREZFf88sAsm7dOixZsgT/+Mc/sH//fkydOhVXX301cnJyWt3/lVdeQWFhoeOWm5uLiIgIzJs3z2m/0NBQp/0KCwuh03loVx+FEkiaCvQeDYQl+na3q16DgdTrASXnXCAiIiKSmw9fdbbtxRdfxO2334477rgDQ4cOxcsvv4yEhASsWLGi1f31ej1iY2Mdtz179qCiogK33nqr036CIDjtFxsb6463Q+2JSQFS5kqBi4iIiIhk53cBxGw2Y+/evZg+fbrT9unTp2P79u2dOsb//vc/XHHFFUhMTHTaXlNTg8TERPTp0wfXXHMN9u/f32N10wWIGw4MnQ0o/O40JyIiIvJYftcnpbS0FDabDTExzmtixMTEoKioqMPnFxYW4ptvvsFHH33ktH3IkCFYtWoV0tLSYDAY8Morr2DKlCk4ePAgkpOTWz2WyWSCyWRy3DcYDBfwjqhVvUcDydMBoZ0ph4mIiIjI7fz2q2Gh2YWpKIottrVm1apVCAsLw9y5c522T5w4EbfccgtGjBiBqVOn4uOPP8agQYPw6quvtnmsZcuWQa/XO24JCT6+/oa7JIwHBs1g+CAiIiLyQH4XQKKioqBUKlu0dhQXF7doFWlOFEW8++67WLhwITSa9qdyVSgUGDduHE6ePNnmPo888giqqqoct9zc3M6/EWpd4mRg4OVyV0FEREREbfC7AKLRaDBmzBhs2bLFafuWLVswefLkdp/7888/49SpU7j99ts7fB1RFHHgwAHExcW1uY9Wq0VoaKjTjbqh/yXSjYiIiIg8lt+NAQGA+++/HwsXLsTYsWMxadIkvPXWW8jJycE999wDQGqZyM/Px/vvv+/0vP/973+YMGECUlNTWxxz6dKlmDhxIpKTk2EwGPDf//4XBw4cwOuvv+6W9+T3Bl4udb0iIiIiIo/mlwFk/vz5KCsrwxNPPIHCwkKkpqZi06ZNjlmtCgsLW6wJUlVVhc8++wyvvPJKq8esrKzEXXfdhaKiIuj1eowaNQq//PILxo/nRbFLCQKQfCXQe4zclRARERFRJwiiKIpyF0ESg8EAvV6Pqqoq93XH2v0OUFPintfqaYIADL4aiBshdyVERETkJ2S5XvMxftkCQj5AUABDrwFihsldCRERERF1AQMIeR+FEkiZA/QaLHclRERERNRFDCDkXRQqYNh1QNRAuSshIiIiogvAAELeQ6kCUm8AIpLkroSIiIiILhADCHkHlQZImweE9ZW7EiIiIiLqBgYQ8nwqLTB8PqDvLXclRERERNRNDCDk2dQBwIgFQEis3JUQERERUQ9gACHPpQkCRtwEBPeSuxIiIiIi6iEMIOSZtCHAyJuBwAi5KyEiIiKiHsQAQp5HpwdG3gQEhMtdCRERERH1MAYQ8iyBEdKYD51e7kqIiIiIyAUYQMhzBEVJ4UMbInclREREROQiDCDkGYKjpfChCZK7EiIiIiJyIQYQkl9onLTOhzpA7kqIiIiIyMUYQEhe+j7A8BulxQaJiIiIyOcxgJB8whOB1BsAlUbuSoiIiIjITRhASB4R/YHU3wFKnoJERERE/oRXf+R+UcnAsOsAhVLuSoiIiIjIzRhAyL2ihwBD5wAKhdyVEBEREZEMGEDIfWJTgcGzGD6IiIiI/BgDCLlH/Ehg0FWAIMhdCRERERHJiAGEXK/PWCD5SrmrICIiIiIPwABCrtV3IjBgmtxVEBEREZGHYAAh1+l3EZA0Ve4qiIiIiMiDMICQawyYJrV+EBERERE1wQBCPUsQgIFXSOM+iIiIiIiaYQChniMIwKAZQPwouSshIiIiIg/FAEI9Q1AAQ2YCsWlyV0JEREREHowBhLpPUAAps4HooXJXQkREREQejgGEukehAobNBaKS5a6EiIiIiLwAAwhdOKUKGHY9EDlA7kqIiIiIyEswgNCFUaqBtBuA8H5yV0JEREREXoQBhLpOpQGGzwf0feSuhIiIiIi8DAMIdY1aBwxfAITGyV0JEREREXkhBhDqPE0gMOImIDha7kqIiIiIyEsxgFDnaIOl8BEUJXclREREROTFGECoY7pQKXwERshdCRERERF5OQYQal9AmBQ+AsLkroSIiIiIfAADCLUtMBIYsUBqASEiIiIi6gEMINS6oCip5UMbLHclRERERORDGECopZAYaapdTaDclRARERGRj2EAIWeh8dIig2qd3JUQERERkQ9iAKHzwhKAtHmASit3JURERETkoxhASBKRBKT+DlCq5a6EiIiIiHwYAwgBkQOBYdcBSp4ORERERORavOL0d72GAH0nAQql3JUQERERkR9gAPF3/S6SuwIiIiIi8iMKuQsgIiIiIiL/wQBCRERERERuwwBCRERERERuwwBCRERERERuwwBCRERERERuwwBCRERERERuwwBCRERERERuwwBCRERERERuwwBCRERERERuwwBCRERERERuwwBCRERERERuwwBCRERERERuwwBCRERERERuwwBCRERERERuwwBCRERERERuwwBCRERERERuwwBCRERERERuwwBCRERERERuwwBCRERERERuo5K7ADpPFEUAgMFgkLkSIiIiImpN43Va43UbdR0DiAeprq4GACQkJMhcCRERERG1p7q6Gnq9Xu4yvJIgMr55DLvdjoKCAoSEhEAQBLnL6REGgwEJCQnIzc1FaGio3OX4FH62rsPP1nX42boOP1vX4ufrOt722YqiiOrqasTHx0Oh4GiGC8EWEA+iUCjQp08fuctwidDQUK/4R8Ub8bN1HX62rsPP1nX42boWP1/X8abPli0f3cPYRkREREREbsMAQkREREREbsMAQi6l1Wrx+OOPQ6vVyl2Kz+Fn6zr8bF2Hn63r8LN1LX6+rsPP1v9wEDoREREREbkNW0CIiIiIiMhtGECIiIiIiMhtGECIiIiIiMhtGECIiIiIiMhtGECoy5YtW4Zx48YhJCQE0dHRmDt3LjIzM532EUUR//rXvxAfH4+AgABceumlOHr0qNM+JpMJf/nLXxAVFYWgoCDMnj0beXl57nwrHm/ZsmUQBAFLlixxbONne+Hy8/Nxyy23IDIyEoGBgRg5ciT27t3reJyf7YWxWq345z//iaSkJAQEBKB///544oknYLfbHfvws+2cX375Bddeey3i4+MhCALWr1/v9HhPfY4VFRVYuHAh9Ho99Ho9Fi5ciMrKShe/O3m199laLBY89NBDSEtLQ1BQEOLj47Fo0SIUFBQ4HYOfbds6OnebuvvuuyEIAl5++WWn7fx8/QcDCHXZzz//jD//+c/YuXMntmzZAqvViunTp6O2ttaxz3PPPYcXX3wRr732Gnbv3o3Y2FhceeWVqK6uduyzZMkSfPHFF1i7di22bduGmpoaXHPNNbDZbHK8LY+ze/duvPXWWxg+fLjTdn62F6aiogJTpkyBWq3GN998g4yMDLzwwgsICwtz7MPP9sI8++yzeOONN/Daa6/h2LFjeO655/Cf//wHr776qmMffradU1tbixEjRuC1115r9fGe+hxvvvlmHDhwAJs3b8bmzZtx4MABLFy40OXvT07tfbZ1dXXYt28fHn30Uezbtw+ff/45Tpw4gdmzZzvtx8+2bR2du43Wr1+PXbt2IT4+vsVj/Hz9iEjUTcXFxSIA8eeffxZFURTtdrsYGxsr/vvf/3bsYzQaRb1eL77xxhuiKIpiZWWlqFarxbVr1zr2yc/PFxUKhbh582b3vgEPVF1dLSYnJ4tbtmwRL7nkEvG+++4TRZGfbXc89NBD4kUXXdTm4/xsL9ysWbPE2267zWnb9ddfL95yyy2iKPKzvVAAxC+++MJxv6c+x4yMDBGAuHPnTsc+O3bsEAGIx48fd/G78gzNP9vWpKeniwDE7OxsURT52XZFW59vXl6e2Lt3b/HIkSNiYmKi+NJLLzke4+frX9gCQt1WVVUFAIiIiAAAZGVloaioCNOnT3fso9Vqcckll2D79u0A8P/bu/egqM7zD+DfZVGWe+W64gpIUURAUEjlooZ6w1BTM061UUKgJs4kxaARsWoSwXglFzXJqE0ctamkaEdJ4qVBgYLRQMQiFCuCSFBsxGIyRExURPb5/ZEfJy53EJckfD8zO8N5z3ve877PObDn2fOeBYWFhWhsbDSo4+LiAl9fX6VOfxYXF4ff/OY3mDJlikE5Y9tzBw8eRFBQEGbPng0nJyeMGTMGO3bsUNYztj03fvx4ZGdn48KFCwCAf//73zh58iQiIyMBMLa9pbfimJ+fD1tbW4wbN06pExwcDFtbW8b6Pjdu3IBKpVLukjK2D0av1yM6OhqJiYnw8fFptZ7x7V9M+7oD9NMmIliyZAnGjx8PX19fAMC1a9cAAM7OzgZ1nZ2dcfnyZaXOwIEDMWjQoFZ1mrfvr/bu3YszZ87g9OnTrdYxtj33xRdfYPv27ViyZAlWrlyJgoICxMfHw8zMDE8//TRj+wD+9Kc/4caNGxg5ciTUajWampqwbt06zJ07FwDP297SW3G8du0anJycWrXv5OTEWP+/O3fuYPny5Zg3bx5sbGwAMLYPKiUlBaampoiPj29zPePbvzABoQeycOFClJSU4OTJk63WqVQqg2URaVXWUlfq/JxduXIFixYtwrFjx6DRaNqtx9h2n16vR1BQENavXw8AGDNmDM6dO4ft27fj6aefVuoxtt23b98+pKam4m9/+xt8fHxQXFyMxYsXw8XFBTExMUo9xrZ39EYc26rPWH+vsbERTz75JPR6PbZt29Zpfca2c4WFhXjrrbdw5syZbseB8f154hQs6rEXXngBBw8eRE5ODnQ6nVKu1WoBoNWnEbW1tcond1qtFnfv3kVdXV27dfqjwsJC1NbWIjAwEKampjA1NcXx48fx9ttvw9TUVIkNY9t9gwcPxqhRowzKvL29UV1dDYDn7YNITEzE8uXL8eSTT8LPzw/R0dF48cUXsWHDBgCMbW/prThqtVr873//a9X+9evX+32sGxsbMWfOHFRVVSEzM1O5+wEwtg/ixIkTqK2thaurq/LedvnyZSQkJMDd3R0A49vfMAGhbhMRLFy4EOnp6fjnP/+JYcOGGawfNmwYtFotMjMzlbK7d+/i+PHjCA0NBQAEBgZiwIABBnVqamrwn//8R6nTH02ePBlnz55FcXGx8goKCkJUVBSKi4vh4eHB2PZQWFhYq6+LvnDhAtzc3ADwvH0Qt27dgomJ4duJWq1WvoaXse0dvRXHkJAQ3LhxAwUFBUqdU6dO4caNG/061s3JR0VFBbKysmBvb2+wnrHtuejoaJSUlBi8t7m4uCAxMRFHjx4FwPj2O0Z/7J1+8p5//nmxtbWV3NxcqampUV63bt1S6mzcuFFsbW0lPT1dzp49K3PnzpXBgwdLfX29Uue5554TnU4nWVlZcubMGZk0aZL4+/vLvXv3+mJYP1r3fwuWCGPbUwUFBWJqairr1q2TiooK+eCDD8TCwkJSU1OVOoxtz8TExMiQIUPk8OHDUlVVJenp6eLg4CDLli1T6jC2XXPz5k0pKiqSoqIiASCbNm2SoqIi5ZuYeiuO06dPl9GjR0t+fr7k5+eLn5+fzJgxw+jjNaaOYtvY2Ci//e1vRafTSXFxscF7W0NDg9IGY9u+zs7dllp+C5YI49ufMAGhbgPQ5mv37t1KHb1eL0lJSaLVasXMzEwmTpwoZ8+eNWjn9u3bsnDhQrGzsxNzc3OZMWOGVFdXG3k0P34tExDGtucOHTokvr6+YmZmJiNHjpT33nvPYD1j2zP19fWyaNEicXV1FY1GIx4eHvLSSy8ZXLgxtl2Tk5PT5t/XmJgYEem9OH799dcSFRUl1tbWYm1tLVFRUVJXV2ekUfaNjmJbVVXV7ntbTk6O0gZj277Ozt2W2kpAGN/+QyUiYow7LURERERERHwGhIiIiIiIjIYJCBERERERGQ0TECIiIiIiMhomIEREREREZDRMQIiIiIiIyGiYgBARERERkdEwASEiIiIiIqNhAkJEP0uXLl2CSqVCcXFxX3dFUVZWhuDgYGg0GgQEBPR1d7olNjYWTzzxxENrPzw8HIsXL+71dnNzc6FSqfDNN9/0etu9qbvj/zGe30REXcUEhIgeitjYWKhUKmzcuNGg/KOPPoJKpeqjXvWtpKQkWFpaory8HNnZ2X3dnR+V9PR0rFmz5oHaeFhJTFt6OyHr7viHDh2Kmpoa+Pr69lofHoaHnbgS0U8TExAiemg0Gg1SUlJQV1fX113pNXfv3u3xtpWVlRg/fjzc3Nxgb2/fi7366bOzs4O1tXVfd6PXNTY2dqled8evVquh1Wphamra064REfUZJiBE9NBMmTIFWq0WGzZsaLdOcnJyq+lIW7Zsgbu7u7Lc/Cnq+vXr4ezsjF/84hdYvXo17t27h8TERNjZ2UGn02HXrl2t2i8rK0NoaCg0Gg18fHyQm5trsL60tBSRkZGwsrKCs7MzoqOj8dVXXynrw8PDsXDhQixZsgQODg6YOnVqm+PQ6/V49dVXodPpYGZmhoCAAGRkZCjrVSoVCgsL8eqrr0KlUiE5ObnNdvbv3w8/Pz+Ym5vD3t4eU6ZMwXfffQcAOH36NKZOnQoHBwfY2tri0UcfxZkzZwy2V6lUePfddzFjxgxYWFjA29sb+fn5uHjxIsLDw2FpaYmQkBBUVla2Ogbvvvsuhg4dCgsLC8yePbvDaUsigtdeew0eHh4wNzeHv78/9u/fr6yvq6tDVFQUHB0dYW5ujuHDh2P37t3tttfy7oW7uzvWr1+P+fPnw9raGq6urnjvvffa3T42NhbHjx/HW2+9BZVKBZVKhUuXLinrCwsLERQUBAsLC4SGhqK8vNxg+0OHDiEwMBAajQYeHh7K+dWW5ORkvP/++/j444+VfeXm5irTov7+978jPDwcGo0Gqamp+PrrrzF37lzodDpYWFjAz88PaWlpDzT+llOwmqeaZWdndzjOtWvXwsnJCdbW1nj22WexfPnyDqcDdnYcv/zyS/z+97/HoEGDYG9vj5kzZypxby9OREQQIqKHICYmRmbOnCnp6emi0WjkypUrIiLy4Ycfyv1/epKSksTf399g282bN4ubm5tBW9bW1hIXFydlZWWyc+dOASARERGybt06uXDhgqxZs0YGDBgg1dXVIiJSVVUlAESn08n+/fultLRUnn32WbG2tpavvvpKRESuXr0qDg4OsmLFCjl//rycOXNGpk6dKr/+9a+VfT/66KNiZWUliYmJUlZWJufPn29zvJs2bRIbGxtJS0uTsrIyWbZsmQwYMEAuXLggIiI1NTXi4+MjCQkJUlNTIzdv3mzVxtWrV8XU1FQ2bdokVVVVUlJSIlu3blXqZmdny549e6S0tFRKS0vlmWeeEWdnZ6mvr1faACBDhgyRffv2SXl5uTzxxBPi7u4ukyZNkoyMDCktLZXg4GCZPn26wTGwtLSUSZMmSVFRkRw/flw8PT1l3rx5rY5ns5UrV8rIkSMlIyNDKisrZffu3WJmZia5ubkiIhIXFycBAQFy+vRpqaqqkszMTDl48GCbsWuO86JFi5RlNzc3sbOzk61bt0pFRYVs2LBBTExM2o3/N998IyEhIbJgwQKpqamRmpoauXfvnuTk5AgAGTdunOTm5sq5c+dkwoQJEhoaqmybkZEhNjY28pe//EUqKyvl2LFj4u7uLsnJyW3u6+bNmzJnzhyZPn26sq+GhgblnHN3d5cDBw7IF198IV9++aX897//lddff12KioqksrJS3n77bVGr1fL555/3ePzN+yoqKhIR6dI4U1NTRaPRyK5du6S8vFxWr14tNjY2rX7/7tfRcfzuu+9k+PDhMn/+fCkpKZHS0lKZN2+eeHl5SUNDQ7txIiJiAkJED8X9F6zBwcEyf/58Eel5AuLm5iZNTU1KmZeXl0yYMEFZvnfvnlhaWkpaWpqI/HCBtnHjRqVOY2Oj6HQ6SUlJERGRV155RaZNm2aw7ytXrggAKS8vF5HvLwwDAgI6Ha+Li4usW7fOoOyRRx6RP/7xj8qyv7+/JCUltdtGYWGhAJBLly51uj+R78dsbW0thw4dUsoAyMsvv6ws5+fnCwDZuXOnUpaWliYajUZZTkpKErVarSSJIiKffPKJmJiYSE1NjYgYHs9vv/1WNBqN5OXlGfTnmWeekblz54qIyOOPPy5/+MMfujQOkbYvwJ966illWa/Xi5OTk2zfvr3LbYj8cGGelZWllB05ckQAyO3bt0VEZMKECbJ+/XqD7fbs2SODBw9ud18tEzKRH865LVu2tLtds8jISElISGi3752Nv70EpKNxjhs3TuLi4gz6ERYW1mEC0tFx3Llzp3h5eYler1fKGhoaxNzcXI4ePSoibceJiIhTsIjooUtJScH777+P0tLSHrfh4+MDE5Mf/mQ5OzvDz89PWVar1bC3t0dtba3BdiEhIcrPpqamCAoKwvnz5wF8Py0nJycHVlZWymvkyJEAYDBFKSgoqMO+1dfX4+rVqwgLCzMoDwsLU/bVFf7+/pg8eTL8/Pwwe/Zs7Nixw+D5mdraWjz33HMYMWIEbG1tYWtri2+//RbV1dUG7YwePVr52dnZGQAMYuXs7Iw7d+6gvr5eKXN1dYVOp1OWQ0JCoNfrW03hAb6ftnbnzh1MnTrVIHZ//etflbg9//zz2Lt3LwICArBs2TLk5eV1OQ5tjUOlUkGr1bY6vj1pa/DgwQCgtNU8Ne7+sSxYsAA1NTW4detWt/fV8nxpamrCunXrMHr0aNjb28PKygrHjh1rddw66nNXx9/ROMvLy/GrX/3KoH7L5ZY6Oo6FhYW4ePEirK2tlbjZ2dnhzp07Br8/REQt8ek1InroJk6ciIiICKxcuRKxsbEG60xMTCAiBmVtPbg7YMAAg2WVStVmmV6v77Q/zd/Cpdfr8fjjjyMlJaVVneaLNwCwtLTstM37220mIt36xi+1Wo3MzEzk5eXh2LFjeOedd/DSSy/h1KlTGDZsGGJjY3H9+nVs2bIFbm5uMDMzQ0hISKsH4++PS/P+2yrrKFbNddrqf/N2R44cwZAhQwzWmZmZAQAee+wxXL58GUeOHEFWVhYmT56MuLg4vPHGG12OR0+Pb2dttRy/Xq/H6tWrMWvWrFbbaTSabu+r5fny5ptvYvPmzdiyZQv8/PxgaWmJxYsXd/qFBj0Zf2fHua1ztCMdHUe9Xo/AwEB88MEHrbZzdHTssF0i6t94B4SIjGLjxo04dOhQq0/CHR0dce3aNYMLod783waff/658vO9e/dQWFio3OUYO3Yszp07B3d3d3h6ehq8upp0AICNjQ1cXFxw8uRJg/K8vDx4e3t3q78qlQphYWFYvXo1ioqKMHDgQHz44YcAgBMnTiA+Ph6RkZHw8fGBmZmZwQPzD6K6uhpXr15VlvPz82FiYoIRI0a0qjtq1CiYmZmhurq6VdyGDh2q1HN0dERsbCxSU1OxZcuWDh8i7w0DBw5EU1NTt7cbO3YsysvLW43F09PT4K5bT/d14sQJzJw5E0899RT8/f3h4eGBioqKbvfzQXl5eaGgoMCg7F//+len27V3HMeOHYuKigo4OTm1iputrS2Anh8TIvp54x0QIjIKPz8/REVF4Z133jEoDw8Px/Xr1/Haa6/hd7/7HTIyMvDJJ5/AxsamV/a7detWDB8+HN7e3ti8eTPq6uowf/58AEBcXBx27NiBuXPnIjExEQ4ODrh48SL27t2LHTt2QK1Wd3k/iYmJSEpKwi9/+UsEBARg9+7dKC4ubvPT4facOnUK2dnZmDZtGpycnHDq1Clcv35dSWI8PT2xZ88eBAUFob6+HomJiTA3N+9eQNqh0WgQExODN954A/X19YiPj8ecOXOg1Wpb1bW2tsbSpUvx4osvQq/XY/z48aivr0deXh6srKwQExODVatWITAwED4+PmhoaMDhw4e7nYx1l7u7O06dOoVLly4p04G6YtWqVZgxYwaGDh2K2bNnw8TEBCUlJTh79izWrl3b7r6OHj2K8vJy2NvbKxfcbfH09MSBAweQl5eHQYMGYdOmTbh27dpDj0dLL7zwAhYsWICgoCCEhoZi3759KCkpgYeHR7vbdHQco6Ki8Prrr2PmzJnKN8BVV1cjPT0diYmJ0Ol0bcap5Z0dIup/eAeEiIxmzZo1raZ8eHt7Y9u2bdi6dSv8/f1RUFCApUuX9to+N27ciJSUFPj7++PEiRP4+OOP4eDgAABwcXHBZ599hqamJkRERMDX1xeLFi2Cra1tu598tyc+Ph4JCQlISEiAn58fMjIycPDgQQwfPrzLbdjY2ODTTz9FZGQkRowYgZdffhlvvvkmHnvsMQDArl27UFdXhzFjxiA6Ohrx8fFwcnLqVj/b4+npiVmzZiEyMhLTpk2Dr68vtm3b1m79NWvWYNWqVdiwYQO8vb0RERGBQ4cOYdiwYQC+/+R7xYoVGD16NCZOnAi1Wo29e/f2Sl/bs3TpUqjVaowaNQqOjo6dPmPRLCIiAocPH0ZmZiYeeeQRBAcHY9OmTXBzc2t3mwULFsDLywtBQUFwdHTEZ5991m7dV155BWPHjkVERATCw8Oh1Wr75J/zRUVFYcWKFVi6dCnGjh2LqqoqxMbGdjjNrKPjaGFhgU8//RSurq6YNWsWvL29MX/+fNy+fVv5AKE7cSKi/kMlnU0AJSKin7Xk5GR89NFHvTr1jX4apk6dCq1Wiz179vR1V4ioH+EULCIion7g1q1b+POf/4yIiAio1WqkpaUhKysLmZmZfd01IupnmIAQERH1AyqVCv/4xz+wdu1aNDQ0wMvLCwcOHMCUKVP6umtE1M9wChYRERERERkNH0InIiIiIiKjYQJCRERERERGwwSEiIiIiIiMhgkIEREREREZDRMQIiIiIiIyGiYgRERERERkNExAiIiIiIjIaJiAEBERERGR0TABISIiIiIio2ECQkRERERERsMEhIiIiIiIjIYJCBERERERGQ0TECIiIiIiMhomIEREREREZDRMQIiIiIiIyGiYgBARERERkdEwASEiIiIiIqNhAkJEREREREbDBISIiIiIiIyGCQgRERERERkNExAiIiIiIjIaJiBERERERGQ0/weU8ndFS0rExQAAAABJRU5ErkJggg==;" vertex="1" parent="1">
          <mxGeometry x="234" y="100" width="360" height="270" as="geometry" />
        </mxCell>
      </root>
    </mxGraphModel>
  </diagram>
</mxfile>
